<?xml version="1.0" encoding="utf-8"?>
<!-- Generator: Adobe Illustrator 19.2.0, SVG Export Plug-In . SVG Version: 6.00 Build 0)  -->
<svg version="1.1" id="Calque_1" xmlns="http://www.w3.org/2000/svg" xmlns:xlink="http://www.w3.org/1999/xlink" x="0px" y="0px"
	 viewBox="0 0 177.6 177.6" style="enable-background:new 0 0 177.6 177.6;" xml:space="preserve">
<style type="text/css">
	.st0{fill:#FFFFFF;}
	.st1{fill:#FDD500;}
	.st2{fill:#362971;}
	.st3{fill-rule:evenodd;clip-rule:evenodd;fill:#362971;}
</style>
<g>
	<circle class="st0" cx="88.8" cy="88.8" r="88.8"/>
	<path class="st1" d="M156.3,89.9c0,37.3-30.2,67.5-67.5,67.5c-37.3,0-67.5-30.2-67.5-67.5c0-37.3,30.2-67.5,67.5-67.5
		C126.1,22.5,156.3,52.7,156.3,89.9"/>
	<path class="st2" d="M88.8,159.7c-38.2,0-69.3-31.1-69.3-69.2c0-38.2,31.1-69.3,69.3-69.3c38.2,0,69.2,31.1,69.2,69.3
		C158.1,128.7,127,159.7,88.8,159.7z M88.8,24c-36.7,0-66.5,29.8-66.5,66.5c0,36.7,29.8,66.5,66.5,66.5c36.7,0,66.5-29.8,66.5-66.5
		C155.3,53.8,125.5,24,88.8,24z"/>
	<g>
		<path class="st2" d="M46.1,21.4l0.8,1.2l0.4,0.6c0.1,0.1,0.1,0.2,0.1,0.3c0,0.1,0,0.2,0,0.3c0,0.2,0,0.4,0,0.5
			c0,0.2,0,0.3-0.1,0.5c0,0.2-0.1,0.4-0.2,0.5c-0.1,0.2-0.2,0.3-0.4,0.4c-0.1,0.1-0.3,0.2-0.4,0.4c-0.2,0.2-0.3,0.3-0.5,0.4
			c-0.1,0.1-0.2,0.3-0.2,0.6l0.3,0.5c0,0.2,0,0.3,0.2,0.3c0.1,0,0.2,0.1,0.3,0.2c0,0.1,0.1,0.2,0.1,0.3c0,0.2,0.1,0.4,0.3,0.5
			c0.2,0.2,0.3,0.3,0.4,0.5c0.1,0.1,0.1,0.2,0.2,0.3c0.1,0.1,0.1,0.2,0.1,0.4c0.1,0.1,0.1,0.2,0,0.3c-0.1,0.1-0.2,0.1-0.2,0.2
			c-0.1,0.1-0.2,0.2-0.4,0.3c-0.2,0.1-0.4,0-0.6-0.1c-0.1,0-0.2-0.1-0.2-0.1c-0.1-0.1-0.1-0.2-0.2-0.3L45,29.3l-0.1-0.1
			c0-0.2,0-0.2-0.2-0.3l-0.3-0.4c0-0.1,0-0.1,0-0.1c0,0-0.1,0-0.1-0.1c-0.1-0.2-0.2-0.3-0.3-0.5c-0.1-0.1-0.1-0.3-0.1-0.4l-0.1-0.2
			c-0.1-0.1-0.2-0.2-0.3-0.3c-0.1-0.1-0.1-0.3-0.2-0.4c0-0.1-0.1-0.1-0.2-0.1c-0.1,0-0.1-0.1-0.1-0.1c-0.2-0.3-0.3-0.5-0.4-0.7
			c-0.1-0.2-0.3-0.5-0.5-0.7c-0.1-0.2-0.2-0.4-0.3-0.6c-0.1-0.2-0.2-0.4-0.4-0.5c-0.1-0.1-0.2-0.3-0.3-0.5c-0.1-0.2-0.2-0.3-0.3-0.4
			c0-0.1-0.1-0.1-0.1-0.2c0-0.1,0-0.1,0-0.2c0-0.1,0.1-0.2,0.1-0.2c0-0.1,0.1-0.1,0.2-0.2c0.2-0.1,0.4-0.3,0.5-0.4
			c0.2-0.2,0.3-0.3,0.5-0.4c0.2-0.1,0.4-0.2,0.6-0.3c0.2-0.1,0.4-0.2,0.6-0.3l0.1-0.1c0.3,0,0.5-0.1,0.7-0.1c0.2,0,0.4,0,0.6,0
			c0,0,0.1,0,0.1,0c0,0,0,0,0,0c0.1,0.1,0.2,0.1,0.3,0.1c0.1,0,0.2,0,0.2,0.1c0.2,0.1,0.4,0.2,0.5,0.4C45.9,21.1,46,21.2,46.1,21.4z
			 M41.2,22.5l0.1,0.1l0.1-0.1L41.2,22.5z M41.4,22.2C41.4,22.2,41.3,22.3,41.4,22.2c-0.1,0.1-0.1,0.2-0.1,0.2
			C41.4,22.4,41.4,22.3,41.4,22.2C41.4,22.3,41.4,22.2,41.4,22.2z M41.6,23.1L41.5,23l-0.1-0.1l0.1,0.1C41.5,23,41.5,23.1,41.6,23.1
			C41.6,23.1,41.6,23.1,41.6,23.1z M41.6,23.3C41.6,23.3,41.6,23.3,41.6,23.3c0.1,0.1,0.1,0,0.2,0l0.1-0.1l0.1,0.1
			c0.1,0,0.2,0,0.2,0c0,0,0.1,0,0.1-0.1l-0.1-0.1c0,0-0.1,0-0.1,0c0,0,0,0,0,0.1c-0.1,0-0.1,0.1-0.1,0.1c0,0,0,0-0.1-0.1
			c-0.1,0-0.1,0-0.1,0c0,0,0,0,0,0c0,0,0-0.1-0.1-0.1C41.7,23.2,41.6,23.2,41.6,23.3z M41.7,22l0.1-0.2L41.7,22L41.7,22z M41.9,22.6
			L41.9,22.6L41.9,22.6z M41.9,23.6l0.1,0.1C42,23.7,42,23.6,41.9,23.6C42,23.6,42,23.6,41.9,23.6z M42.2,22.5c0,0-0.1,0-0.1,0
			c0,0-0.1,0.1,0,0.1L42.2,22.5L42.2,22.5L42.2,22.5z M42.1,22.9L42.1,22.9c0.1,0,0.2,0,0.2,0c0,0,0,0,0-0.1L42.1,22.9z M42.2,21.8
			L42.2,22l0.2-0.2c0,0,0,0,0,0C42.3,21.8,42.2,21.8,42.2,21.8z M42.4,23.6l-0.1-0.1l0.1-0.1l-0.1,0.1L42.4,23.6L42.4,23.6
			L42.4,23.6z M42.7,21.7C42.7,21.7,42.6,21.7,42.7,21.7c-0.1,0.1-0.2,0-0.2,0l-0.1-0.1c0,0.1,0,0.1,0,0.1c0,0,0,0,0.1,0l0.1,0.2
			c0,0,0,0,0,0c0,0,0.1,0,0.2,0c0,0,0,0,0,0c0,0,0,0-0.1,0c0,0,0,0-0.1,0C42.7,21.8,42.7,21.8,42.7,21.7L42.7,21.7z M42.4,23.1
			L42.4,23.1L42.4,23.1z M42.6,24.6c0,0,0-0.1,0-0.1c0,0,0,0,0.1-0.1L42.6,24.6L42.6,24.6z M42.7,24.1l-0.1,0.1
			C42.6,24.2,42.6,24.2,42.7,24.1C42.7,24.2,42.7,24.1,42.7,24.1L42.6,24l0-0.1l0,0.1L42.7,24.1z M42.7,21.2l-0.1,0.1l0.1,0.1
			l-0.1-0.1L42.7,21.2z M42.8,24.9l-0.1-0.1c-0.1,0-0.1,0.1-0.1,0.1c0,0,0,0.1,0.1,0.1L42.8,24.9z M44.5,22l-0.1-0.2
			c0-0.1-0.1-0.1-0.1-0.1c0,0-0.1,0-0.1,0.1c0,0-0.1,0-0.2,0c-0.1,0-0.2,0-0.3,0c-0.3,0.1-0.6,0.2-0.7,0.5c-0.1,0.1-0.2,0.2-0.2,0.3
			c0,0.1,0,0.2,0.1,0.3c0.1,0.2,0.2,0.3,0.2,0.4c0,0.1,0.1,0.2,0.2,0.3c0.1,0.2,0.3,0.4,0.5,0.6c0.2,0.2,0.3,0.4,0.4,0.6
			c0,0.1,0.1,0.2,0.2,0.3c0.1,0.1,0.3,0.1,0.3,0.2l0.2-0.2c0.2,0,0.3-0.1,0.4-0.1c0.1-0.1,0.2-0.2,0.2-0.3c0.3-0.4,0.4-0.7,0.3-1.1
			c-0.1-0.2-0.3-0.4-0.4-0.6c-0.1-0.2-0.3-0.4-0.6-0.6L44.5,22z M43.2,21L43,21.1c0,0,0,0,0,0c0,0,0,0-0.1,0.1c0,0,0.1,0,0.1,0
			c0,0,0,0,0-0.1L43.2,21z M42.9,25.1l0.1-0.1L42.9,25.1z M43.5,21.2L43.5,21.2c0-0.2,0-0.2,0-0.3c0,0,0-0.1-0.1-0.1
			c0,0.1,0,0.1,0,0.2C43.4,21.1,43.4,21.1,43.5,21.2L43.5,21.2z M44,21.2l-0.1,0.1L44,21.2l-0.1-0.1l-0.1,0.1l0.1-0.1L44,21.2z
			 M44.2,26.2c-0.1,0-0.1,0.1-0.2,0.1c-0.1,0-0.1,0.1-0.2,0.2L44.2,26.2z M43.9,20.8C43.9,20.9,44,20.9,43.9,20.8
			c0.1,0,0.1-0.1,0.1-0.1L43.9,20.8z M44.1,26L44,26C44.1,26,44.1,26,44.1,26C44.1,26,44.1,26,44.1,26l0.1-0.1c0,0,0,0.1,0.1,0.1
			c0,0,0.1,0,0.1-0.1c0,0-0.1,0-0.1,0c0,0-0.1,0-0.1,0c0-0.1-0.1-0.1-0.1-0.1c0,0-0.1,0-0.1,0.1L44.1,26z M44.1,25.6
			C44.1,25.6,44.1,25.6,44.1,25.6c0.1-0.1,0.1-0.1,0.1-0.2L44.1,25.6L44.1,25.6z M44.1,26.8C44.1,26.8,44.1,26.9,44.1,26.8
			C44.2,26.8,44.2,26.8,44.1,26.8c0-0.1,0-0.1,0-0.1C44,26.8,44,26.9,44.1,26.8z M44.3,21.1l-0.1,0.1C44.3,21.2,44.3,21.2,44.3,21.1
			C44.3,21.2,44.3,21.1,44.3,21.1c0,0.1,0.1,0.1,0.1,0.1c0,0,0.1,0,0.2,0c0,0,0,0,0,0c0,0,0.1,0,0.1,0l-0.1-0.1l-0.1,0.1
			c0-0.1-0.1-0.1-0.1-0.1C44.4,21.2,44.3,21.2,44.3,21.1z M44.4,27.2C44.3,27.3,44.3,27.3,44.4,27.2c-0.1,0.1,0,0.1,0.1,0.1
			c0-0.1,0-0.1,0.1-0.1c0,0,0,0,0-0.1L44.4,27.2z M44.6,26.5c-0.1,0-0.1,0.1-0.2,0.1c-0.1,0-0.1,0-0.1-0.1c0,0.1,0.1,0.1,0.1,0.1
			c0,0,0,0,0.1-0.1C44.5,26.6,44.6,26.6,44.6,26.5C44.7,26.5,44.7,26.5,44.6,26.5z M44.5,26.7L44.5,26.7l-0.1,0.2L44.5,26.7
			L44.5,26.7z M44.9,27.4L44.9,27.4l-0.3-0.1c0,0,0,0.1,0.1,0.1C44.7,27.4,44.8,27.4,44.9,27.4L44.9,27.4z M44.8,27.9L44.7,28
			L44.8,27.9z M44.8,26.4L44.8,26.4L44.8,26.4z M45.1,28L45.1,28c-0.1,0-0.2,0-0.2,0c0,0,0,0,0,0.1L45.1,28z M45,21.6
			C45,21.6,45,21.7,45,21.6c0.1,0.1,0.1,0.1,0.2,0c0-0.1-0.1-0.1-0.1-0.1C45.1,21.5,45,21.5,45,21.6z M45.2,26.5
			c-0.1,0-0.1,0.1-0.1,0.1c0,0.1,0,0.1,0,0.2l0.1,0.1l-0.1-0.1L45,26.8c0.1,0,0.1,0,0.2,0c0,0,0,0,0-0.1L45.2,26.5z M45.2,27.6
			l0.1,0.1C45.2,27.6,45.2,27.6,45.2,27.6c0,0-0.1,0-0.1,0.1C45.1,27.7,45.1,27.7,45.2,27.6c0,0-0.1,0-0.1,0.1L45.2,27.6z M45.2,22
			L45.2,22l-0.1-0.2L45.2,22L45.2,22z M45.5,28.3C45.5,28.3,45.5,28.3,45.5,28.3c-0.1-0.1-0.1-0.1-0.2,0l0.1,0.1L45.5,28.3z
			 M45.6,29C45.6,29,45.6,29,45.6,29C45.6,29,45.6,28.9,45.6,29l-0.1-0.2l-0.1,0.1c0,0.1,0.1,0.1,0.1,0.1
			C45.5,28.9,45.5,28.9,45.6,29L45.6,29C45.6,29,45.5,29,45.6,29c-0.1,0.1,0,0.1,0.1,0.1L45.6,29z M45.5,26.2L45.5,26.2L45.5,26.2
			l-0.1,0.1L45.5,26.2z M45.6,22l0.1,0.1c0.1,0,0.1,0,0.1,0c0,0,0,0,0-0.1l-0.1,0.1L45.6,22l-0.1,0.1L45.6,22z M45.7,28.6L45.7,28.6
			L45.7,28.6l0.1-0.1L45.7,28.6z M45.9,22.7l-0.1,0.1L45.9,22.7z M46.1,25.6c0,0.1,0,0.1,0,0.2c0,0-0.1,0.1-0.1,0.1l0.1-0.1
			c0,0,0,0,0,0C46.1,25.7,46.1,25.7,46.1,25.6z M46.1,28.6l-0.1,0.1l0.1,0.1L46.1,28.6L46.1,28.6z M46.1,29.1
			c-0.1,0.1-0.1,0.1-0.1,0.1c0,0,0,0,0,0.1L46.1,29.1z M46.1,25.4L46,25.2L46.1,25.4z M46.3,22.8C46.3,22.8,46.3,22.8,46.3,22.8
			c0,0-0.1,0-0.1,0.1L46.1,23l0.1-0.1L46.3,22.8z M46.1,24.9C46.1,24.9,46.2,25,46.1,24.9c0.1,0.1,0.1,0.1,0.2,0
			C46.2,24.9,46.2,24.9,46.1,24.9C46.2,24.9,46.1,24.9,46.1,24.9z M46.2,29.7c0,0,0-0.1,0-0.1c0,0,0,0,0.1-0.1L46.2,29.7z
			 M46.2,23.4c0.1,0,0.2,0,0.2,0c0,0,0-0.1,0.1-0.2l0.1,0.1c-0.1,0-0.2,0-0.2,0C46.3,23.3,46.2,23.3,46.2,23.4z M46.3,24.1l0.1,0.1
			c0,0,0,0,0,0c0,0,0,0.1,0.1,0.1c0,0,0,0,0.1-0.1c0-0.1,0-0.1,0-0.2c0-0.1,0-0.1,0-0.1c0,0,0,0-0.1,0L46.3,24.1z M46.5,30l0.1-0.1
			l-0.1-0.1C46.5,29.9,46.4,29.9,46.5,30C46.5,30,46.5,30,46.5,30z M46.6,25C46.6,25,46.6,25,46.6,25c0.1-0.1,0.1-0.1,0-0.2
			l-0.1,0.1L46.6,25l0.1-0.1L46.6,25z M46.6,23.7c0.1,0,0.1-0.1,0.1-0.1c0,0,0,0,0-0.1L46.6,23.7L46.6,23.7z M46.9,23.9l-0.1-0.1
			L46.9,23.9z"/>
		<path class="st2" d="M49,16.8l1.5-0.8c0.3-0.2,0.5-0.2,0.7-0.2c0.2,0,0.3,0.1,0.4,0.3c0.1,0.2,0.2,0.4,0.1,0.6
			c-0.1,0.2-0.2,0.3-0.4,0.4c-0.3,0.2-0.5,0.4-0.7,0.5c-0.2,0.1-0.4,0.2-0.7,0.3c-0.1,0.1-0.2,0.2-0.3,0.2c-0.1,0.1-0.1,0.2-0.1,0.3
			c-0.1,0.1-0.2,0.2-0.2,0.3c0,0.1,0,0.2,0,0.3l0.9,1.6c0.1,0.2,0.3,0.3,0.5,0.3c0.2,0,0.5,0,0.6-0.1c0.1-0.1,0.3-0.2,0.4-0.2
			c0.1-0.1,0.2-0.2,0.3-0.3c0.1-0.1,0.3-0.1,0.5-0.1c0.2,0,0.3,0,0.4-0.1c0,0,0.1,0,0.1,0c0,0,0,0,0,0c0.1,0.1,0.2,0.2,0.4,0.3
			c0.1,0.1,0.1,0.3,0,0.4c0,0.1,0,0.3-0.1,0.4c-0.1,0.1-0.1,0.2-0.2,0.2L52,22.1c-0.1,0.1-0.3,0.2-0.4,0.3c-0.1,0.1-0.2,0.3-0.1,0.4
			c0,0.2,0.1,0.4,0.1,0.5c0.1,0.1,0.1,0.3,0.2,0.4l0.4,0.7c0.1,0.1,0.1,0.2,0.2,0.3c0.1,0.1,0.2,0.2,0.3,0.3
			c0.1,0.1,0.3,0.1,0.6,0.1c0.3-0.1,0.5-0.2,0.6-0.4c0.2-0.1,0.4-0.2,0.6-0.3c0.2-0.1,0.4-0.2,0.7-0.2c0.3-0.1,0.5-0.1,0.6,0.1
			c0.1,0,0.2,0.1,0.2,0.2c0.1,0.1,0.1,0.2,0.1,0.2c0.1,0.1,0,0.2,0,0.4c-0.1,0.2-0.2,0.3-0.3,0.3c-0.5,0.3-1,0.7-1.6,1
			c-0.5,0.3-1,0.6-1.5,0.8c-0.5,0.3-0.9,0.2-1.1-0.2L51,25.6l-0.2-0.3c0-0.1,0-0.2-0.1-0.3c-0.1-0.1-0.2-0.2-0.3-0.4l-0.5-0.9
			c0-0.1,0-0.3-0.1-0.4c-0.1-0.1-0.1-0.2-0.1-0.4c-0.1-0.1-0.3-0.2-0.3-0.3c-0.1-0.1-0.2-0.3-0.3-0.4l-0.2-0.3l-0.1-0.1
			c-0.1-0.3-0.2-0.6-0.4-0.8c-0.2-0.2-0.3-0.4-0.4-0.6l-0.7-1.4c0-0.1,0-0.2,0-0.3c0-0.1-0.1-0.2-0.1-0.2c-0.1-0.2-0.1-0.3,0-0.4
			c0.1-0.1,0.2-0.2,0.3-0.3L49,16.8z M48,18.5c-0.1,0-0.1,0.1-0.1,0.1c0,0,0,0.1,0,0.1l-0.1-0.1L48,18.5z M48,18.1l-0.1,0.2
			C47.9,18.2,48,18.2,48,18.1C48,18.1,48,18.1,48,18.1z M48,19c0.1,0,0.1,0,0.1,0c0,0,0-0.1,0.1-0.1c0,0,0,0-0.1,0c0,0,0,0.1,0,0.1
			l0.1-0.1l-0.1-0.1L48,19z M48.1,18.3l0.1,0.1L48.1,18.3z M48.2,17.8L48.2,17.8L48.2,17.8C48.2,17.9,48.2,17.9,48.2,17.8
			c0.1,0.1,0.1,0.1,0.2,0C48.3,17.9,48.3,17.9,48.2,17.8C48.3,17.8,48.2,17.8,48.2,17.8z M48.3,19.7l-0.1-0.1L48.3,19.7z M48.3,18.7
			l0.1,0.1L48.3,18.7z M48.4,18.5l0.2,0l0-0.1L48.4,18.5z M48.8,19.6c0,0,0-0.1,0-0.1c0-0.1-0.1-0.1-0.1-0.1
			C48.7,19.4,48.7,19.5,48.8,19.6c-0.1-0.1-0.1-0.1-0.2,0l-0.1,0.1c-0.1,0-0.1,0.1,0,0.1c0,0,0,0,0.1,0l0.1,0.1l-0.1-0.1l0.2,0.1
			l0.1-0.1L48.8,19.6z M48.6,18.6l-0.1,0.1L48.6,18.6z M48.7,20.2l0.1-0.1L48.7,20.2l0.1,0.1l0.1-0.1l-0.1-0.1L48.7,20.2l-0.1-0.1
			L48.7,20.2z M48.9,17.6c0,0.1,0,0.1,0,0.1c0,0,0,0,0.1,0l0,0.1l0-0.1L48.9,17.6z M49.1,20.5l0.1-0.1c0,0,0,0,0,0
			c-0.1,0-0.1,0-0.2,0L49,20.3l0.1,0.1c0,0,0.1,0,0.2,0c0,0,0,0,0,0L49.1,20.5L49,20.6L49.1,20.5z M49.2,17.4l0.1-0.1
			C49.2,17.4,49.2,17.4,49.2,17.4c0,0-0.1,0-0.2,0C49,17.4,49,17.5,49.2,17.4C49.1,17.6,49.1,17.5,49.2,17.4z M49.1,20.9l0.1-0.1
			L49.1,20.9z M49.9,21.1C49.9,21.1,49.9,21.1,49.9,21.1c-0.1,0.1-0.1,0.1-0.1,0.2C49.8,21.2,49.8,21.1,49.9,21.1
			C49.9,21.1,49.9,21.1,49.9,21.1c-0.1,0-0.1,0-0.1,0c0,0,0,0-0.1-0.1l-0.2,0.1c0,0.1,0.1,0.1,0.1,0.1c0,0,0.1,0,0.2-0.1L49.9,21.1z
			 M49.8,17C49.8,17,49.8,16.9,49.8,17c-0.1-0.1-0.1-0.1-0.2,0l0,0.1L49.8,17z M49.7,21.9L49.6,22L49.7,21.9z M49.6,20.8l0.1,0.1
			c0,0,0,0,0,0c0,0,0.1,0,0.1,0l-0.1-0.1c0-0.1-0.1-0.1-0.1-0.1C49.7,20.8,49.7,20.8,49.6,20.8z M49.9,17.5l-0.1-0.1l-0.1,0.2
			L49.9,17.5z M50,22.4l0.1,0.1l0.1-0.1c0,0,0,0,0,0C50.1,22.4,50,22.4,50,22.4z M50,16.7L50,16.7l0.2,0l-0.1-0.1L50,16.7z
			 M50.4,22.3l-0.2,0.1c0,0,0,0.1,0.1,0.1C50.3,22.4,50.4,22.4,50.4,22.3L50.4,22.3z M50.6,23.3l-0.1,0.1l0.1,0.1
			c0.1,0,0.1-0.1,0.1-0.1C50.6,23.4,50.6,23.3,50.6,23.3z M50.5,16.7C50.6,16.7,50.6,16.7,50.5,16.7c0.1,0,0.2,0,0.1-0.1L50.5,16.7z
			 M51,23.6c-0.1,0-0.1,0.1-0.1,0.1c0,0-0.1,0-0.2,0l-0.1,0.2l0.1-0.1c0,0,0.1,0,0.1,0c0.1,0,0.2,0,0.2,0L51,23.6z M50.8,22.5
			l0.1,0.1l0.1-0.1l-0.1,0.1L50.8,22.5z M50.9,21.5C50.9,21.6,50.9,21.6,50.9,21.5c0.1,0.1,0.1,0.1,0.2,0l0.1,0.2L51,21.8
			c0-0.1,0-0.1-0.1-0.1c0,0,0,0.1-0.1,0.1l0.1-0.1l0.1-0.1c0,0,0-0.1,0-0.1c0-0.1,0-0.1-0.1-0.1C51,21.6,50.9,21.6,50.9,21.5
			C50.9,21.6,50.9,21.6,50.9,21.5z M50.9,22.2l0.1,0.1L50.9,22.2z M51.3,21.3l-0.1,0.1L51.3,21.3L51.3,21.3z M51.3,25l-0.1-0.1
			L51.3,25l0.1,0.1L51.3,25z M51.3,24.3l0.2-0.1l-0.1-0.1C51.3,24.1,51.3,24.2,51.3,24.3C51.3,24.3,51.3,24.3,51.3,24.3z M51.7,24.6
			C51.7,24.6,51.7,24.6,51.7,24.6c0-0.1,0-0.1,0-0.1c0-0.1,0-0.1-0.1,0l-0.1,0.2l0,0.1C51.6,24.7,51.7,24.6,51.7,24.6z M52.3,26.1
			C52.3,26.1,52.3,26.1,52.3,26.1c0.1,0.1,0.1,0,0.2-0.1L52.3,26.1l0.2-0.1l0-0.1L52.3,26.1L52.3,26.1z M52.3,21l0.1,0.1L52.3,21z
			 M52.6,25.7L52.6,25.7l-0.2,0C52.4,25.7,52.4,25.7,52.6,25.7C52.5,25.7,52.5,25.7,52.6,25.7z M52.9,25.6l-0.1-0.1l0-0.1l0,0.1
			L52.9,25.6L52.9,25.6L52.9,25.6z M53.1,25.9C53.1,25.9,53.1,25.9,53.1,25.9c-0.1-0.1-0.1,0-0.2,0L53.1,25.9
			C53.1,26,53.1,26,53.1,25.9c0,0.1,0,0.1,0.1,0.1L53.1,25.9z M53.4,25.6l0.1-0.2l-0.1,0.1c0,0-0.1-0.1-0.1,0c0,0-0.1,0.1,0,0.1
			c0,0.1,0.1,0.1,0.1,0.1C53.3,25.7,53.4,25.7,53.4,25.6z M54,26l0.1-0.2l0.1-0.2l0.1,0.1l-0.1-0.1c0-0.1-0.1-0.1-0.1-0.1
			c0,0-0.1,0-0.1,0.1l0.1,0.1c0,0,0,0,0,0c0,0-0.1,0-0.1,0l-0.1,0.1l-0.1-0.1l0.1,0.1c0.1,0,0.1,0,0.2,0c0,0,0.1,0,0.2,0L54,26z
			 M53.9,25.5l0.1-0.1L53.9,25.5z M54.8,24.7l0.1-0.1c0,0,0-0.1-0.1-0.1C54.9,24.6,54.8,24.6,54.8,24.7L54.8,24.7l-0.1,0.1
			L54.8,24.7z M55.1,25l0.1-0.1L55.1,25l-0.1-0.1L55.1,25z"/>
		<path class="st2" d="M57.7,15.3L57.7,15.3c0.2,0.2,0.3,0.4,0.4,0.5c0.1,0.1,0.2,0.3,0.3,0.4l0.2,0.5c0.2,0.3,0.4,0.6,0.6,0.8
			c0.2,0.3,0.4,0.5,0.6,0.7c0.2,0.3,0.5,0.6,0.7,0.9c0.3,0.3,0.5,0.6,0.7,0.9c0.1,0.2,0.2,0.3,0.3,0.4c0.1,0.1,0.2,0.2,0.4,0.4
			l0,0.1c0,0,0.1,0.1,0.1,0.2c0.1,0.1,0.1,0.1,0.2,0.2c0.1,0.1,0.2,0.3,0.2,0.4c0,0.1,0,0.3,0,0.4c0,0.1-0.1,0.2-0.1,0.2
			c-0.1,0.1-0.1,0.1-0.2,0.2c-0.3,0.1-0.6,0.2-0.8,0.1c-0.2,0-0.4-0.1-0.6-0.3c-0.1-0.2-0.2-0.3-0.2-0.5c-0.1-0.2-0.2-0.3-0.3-0.4
			c-0.2-0.2-0.4-0.2-0.6-0.2c-0.2,0-0.4,0.1-0.7,0.2c-0.2,0.1-0.4,0.2-0.5,0.3c-0.1,0.1-0.2,0.3-0.3,0.5l0,0.1c0,0.1,0,0.1,0,0.1
			c0,0,0,0.1-0.1,0.2c-0.1,0.1,0,0.2,0,0.3c0.1,0.1,0.2,0.2,0.2,0.3c0,0.1,0,0.1,0,0.2c0,0.1,0,0.1,0,0.2c0,0.1,0,0.2-0.1,0.4
			c-0.1,0.1-0.2,0.2-0.3,0.3c-0.1,0.1-0.2,0.2-0.4,0.2c-0.1,0.1-0.3,0.1-0.4,0.1c-0.1,0-0.2-0.1-0.3-0.1c-0.1,0-0.1-0.1-0.2-0.1
			c-0.1-0.2-0.1-0.3-0.2-0.5c-0.1-0.2-0.1-0.4-0.1-0.6c-0.1-0.1-0.1-0.2-0.1-0.4c0-0.1,0-0.3-0.1-0.4c0-0.2,0-0.3,0-0.5
			c0-0.2-0.1-0.3-0.1-0.5c0-0.1,0-0.3-0.1-0.4c0-0.1-0.1-0.3-0.2-0.4c-0.1-0.1-0.1-0.3-0.1-0.4c0-0.1,0-0.3,0-0.4c0-0.2,0-0.4,0-0.6
			c0-0.2-0.1-0.4-0.1-0.6l-0.1-0.2c0-0.2-0.1-0.5-0.1-0.8c0-0.3-0.1-0.5-0.1-0.8c0-0.1-0.1-0.1-0.1-0.2c0-0.1,0-0.2,0-0.3l-0.1-0.3
			c0-0.1-0.1-0.2-0.1-0.4c-0.1-0.2-0.1-0.3-0.1-0.4C55,15,55,15,55,15c0,0,0,0,0-0.1c-0.1-0.1-0.2-0.3-0.1-0.5
			c0.1-0.2,0.2-0.4,0.4-0.5c0-0.1,0.1-0.2,0.1-0.2c0.1,0,0.1,0,0.1,0.1c0.2-0.1,0.3-0.1,0.4-0.1c0.1,0,0.2,0,0.2,0
			c0.1,0,0.1,0,0.2,0c0,0,0.1,0.1,0.2,0.1c0.1,0.2,0.2,0.3,0.2,0.4c0.1,0.1,0.2,0.2,0.2,0.4c0,0,0.1,0.1,0.1,0.2
			c0.1,0.1,0.1,0.2,0.2,0.2c0.1,0,0.2,0.1,0.2,0.1C57.6,15.1,57.7,15.2,57.7,15.3z M55.4,14.6l0.1,0.2c0.1,0,0.1-0.1,0.1-0.1
			c0,0,0,0,0-0.1C55.6,14.6,55.5,14.6,55.4,14.6C55.4,14.6,55.4,14.6,55.4,14.6z M55.8,15.1C55.8,15.1,55.8,15.1,55.8,15.1
			c-0.1-0.1-0.1-0.1-0.2,0l0,0.1L55.8,15.1z M55.7,15.3L55.7,15.3L55.7,15.3z M55.8,14.4c0,0,0-0.1,0-0.1l-0.1,0.1L55.8,14.4
			C55.7,14.5,55.8,14.4,55.8,14.4z M55.8,16.3l0.1-0.1L55.8,16.3L55.8,16.3z M55.9,17c-0.1,0-0.1,0.1-0.1,0.1c0,0,0,0,0,0l0-0.1
			L55.9,17z M56,14.5l0-0.1L56,14.5l-0.1,0.1L56,14.5z M55.9,17.4l-0.1-0.1L55.9,17.4z M56,17.5C55.9,17.5,55.9,17.5,56,17.5
			c-0.1,0.1-0.1,0.1-0.1,0.2c0,0,0,0,0,0c0,0,0,0,0,0c0,0,0,0,0-0.1L56,17.5z M56.1,14.7l0.2-0.1L56.1,14.7
			C56.1,14.6,56,14.6,56.1,14.7c-0.1-0.1-0.1-0.1-0.2,0l0,0.1C56,14.8,56.1,14.8,56.1,14.7C56.1,14.7,56.1,14.7,56.1,14.7z M56,18
			c-0.1,0-0.1,0.1-0.1,0.1c0,0,0,0,0,0.1l0.2-0.1L56,18z M56.1,17.8l0-0.1C56.1,17.8,56.1,17.8,56.1,17.8c0,0,0.1,0,0.1-0.1
			L56.1,17.8z M56.2,18.7c-0.1,0-0.1,0.1-0.1,0.1c0,0,0,0,0,0L56.2,18.7L56.2,18.7z M56.1,17.4l0,0.1c0.1,0,0.1-0.1,0.1-0.1
			c0,0,0,0,0-0.1L56.1,17.4z M56.3,18.2L56.2,18l-0.1,0.2L56.3,18.2z M56.4,15.5l-0.1-0.2l-0.1,0.1c0.1,0,0.1,0,0.1,0
			C56.4,15.4,56.4,15.4,56.4,15.5z M56.2,16.5l0.2-0.1l0-0.1l0,0.1L56.2,16.5z M56.2,16.1C56.2,16.1,56.2,16.1,56.2,16.1
			c0.1,0.1,0.1,0.1,0.2,0l0-0.1L56.2,16.1z M56.4,19.9l0,0.1l0.1-0.1c0-0.1,0-0.1-0.1-0.1C56.5,19.9,56.4,19.9,56.4,19.9z
			 M56.5,18.6l0.1-0.1L56.5,18.6z M56.5,14.8l0.1,0.2c0-0.1,0-0.2,0-0.2c0,0,0-0.1,0-0.1L56.5,14.8z M56.5,18.3l0.2-0.1L56.5,18.3z
			 M56.6,19.7l0.2-0.1l-0.1-0.1L56.6,19.7z M56.7,20.7l0.1-0.1C56.8,20.6,56.7,20.6,56.7,20.7C56.7,20.7,56.7,20.7,56.7,20.7z
			 M57,20.2l0-0.1l0-0.1L56.7,20c0,0.1,0,0.1,0.1,0.1c0,0,0.1,0,0.1,0c-0.1,0-0.1,0.1-0.1,0.1C56.9,20.2,56.9,20.2,57,20.2
			C57,20.3,57,20.3,57,20.2c0,0,0.1,0,0.1-0.1L57,20.2z M56.9,22.2C56.9,22.3,56.9,22.3,56.9,22.2c0,0.1,0,0.1-0.1,0.1L56.9,22.2
			L56.9,22.2z M56.8,20.9l0.1-0.1L56.8,20.9z M57.1,22C57.1,22,57,22,57.1,22c-0.1,0-0.2,0-0.2-0.1l0.1,0.1l-0.1,0.1c0,0,0,0,0.1,0
			c0,0,0,0,0.1-0.1L57.1,22z M56.9,15.4c-0.1,0-0.1,0.1-0.1,0.1c0,0.1,0,0.1,0.1,0.2c0.1,0,0.1-0.1,0.1-0.1
			C56.9,15.5,56.9,15.5,56.9,15.4z M57.1,15.8l-0.1,0.1c0-0.1,0-0.1,0-0.1c0,0,0,0-0.1,0.1L57.1,15.8z M57.9,18.2l-0.1-0.1
			c-0.1-0.1-0.3-0.3-0.4-0.5c-0.2-0.2-0.3-0.3-0.3-0.5L57,17.2l-0.1,0.1l0.3,0.8c0,0.3,0.1,0.5,0.1,0.8c0,0.3,0.1,0.6,0.1,0.9
			c0,0.1,0.1,0.2,0.1,0.2c0,0.1,0.2,0.1,0.3,0.1c0.1,0.1,0.2,0.1,0.3,0.1c0.1,0,0.2-0.1,0.3-0.2c0.1-0.1,0.2-0.2,0.2-0.3
			c0-0.1,0-0.2,0-0.3c-0.1-0.1-0.2-0.2-0.3-0.3c-0.1-0.1-0.1-0.2-0.1-0.2c-0.1-0.1-0.2-0.2-0.2-0.3C58,18.5,58,18.4,57.9,18.2z
			 M57.3,16.6l-0.1,0.1c-0.1,0-0.1,0-0.2,0c0,0,0,0,0,0l0.2-0.1L57.3,16.6z M57.2,20.8c0,0-0.1,0-0.1,0c0,0-0.1,0-0.1,0l0,0.1
			L57.2,20.8z M57.7,21.9C57.8,21.9,57.8,21.8,57.7,21.9c0.1-0.1,0.1-0.1,0.1-0.2l-0.1,0.1L57.7,21.9c0-0.1-0.1-0.1-0.1-0.2
			c0,0-0.1-0.1-0.2,0c-0.1,0-0.1,0.1,0,0.1c0,0,0,0,0.1,0l-0.1,0.1L57.2,22l0,0.1c0.1,0,0.1-0.1,0.1-0.1c0,0,0,0,0-0.1
			c0,0,0.1,0.1,0.1,0.1c0,0,0.1,0,0.1,0l0,0.1C57.7,22,57.7,22,57.7,21.9C57.7,21.9,57.7,21.9,57.7,21.9z M57.3,23.6
			C57.3,23.6,57.3,23.6,57.3,23.6c-0.1,0.1,0,0.1,0.1,0.1L57.3,23.6z M57.3,16.8l0.1,0.2c0,0,0-0.1,0-0.1c0,0,0,0,0.1,0l0-0.1
			L57.3,16.8z M57.5,21.1l-0.1-0.1c-0.1,0-0.1,0-0.1,0.1c0,0,0,0.1,0,0.1L57.5,21.1z M57.6,16.2l0-0.1L57.6,16.2z M57.5,16.4
			C57.5,16.5,57.5,16.5,57.5,16.4c0.1,0,0.1,0,0.1-0.1L57.5,16.4z M58,20.7c-0.1,0-0.1,0-0.2,0c0,0-0.1,0-0.1,0l-0.2,0.1l0.2-0.1
			c0.1,0,0.2,0,0.2,0C57.9,20.7,57.9,20.7,58,20.7z M57.6,16.2l0.1,0.1l0.1-0.1c0,0,0,0,0-0.1C57.6,16.1,57.6,16.1,57.6,16.2z
			 M57.7,17.2l0.2-0.1L57.7,17.2z M57.7,23.3C57.7,23.4,57.7,23.4,57.7,23.3l0.2,0C57.7,23.4,57.7,23.3,57.7,23.3z M57.7,16.5
			l0.1,0.1c-0.1,0-0.1,0.1,0,0.1c0.1,0,0.1,0.1,0.1,0.1l0-0.1l0-0.1L57.7,16.5z M57.9,17.3l0.1-0.1c0-0.1,0-0.1-0.1-0.1
			c0,0-0.1,0-0.1,0L57.9,17.3z M58,16.9l0,0.1C58.1,17,58.1,17,58,16.9c0,0-0.1,0-0.1,0.1L58,16.9z M58.1,21
			C58.1,21.1,58.1,21.1,58.1,21c0.1,0.1,0.2,0.1,0.2,0.1c0-0.1-0.1-0.1-0.1-0.1C58.2,20.9,58.2,20.9,58.1,21z M58.3,17.9
			C58.3,17.9,58.3,17.9,58.3,17.9L58.3,17.9l0.1,0C58.4,17.9,58.3,17.9,58.3,17.9z M58.4,18.2l0,0.1c0.1,0,0.1,0,0.1-0.1
			c0,0,0,0,0-0.1L58.4,18.2z M58.6,21.1c0,0,0-0.1-0.1-0.1c0,0-0.1-0.1-0.1,0c0,0.1,0.1,0.1,0.1,0.1C58.6,21,58.6,21,58.6,21.1
			L58.6,21.1z M58.7,20.3l0.1-0.1L58.7,20.3z M58.8,18.6l0.2-0.1l0,0.1l0-0.1L58.8,18.6z M58.8,18l0-0.1L58.8,18l0,0.1L58.8,18z
			 M59.1,18.2C59.1,18.2,59.1,18.2,59.1,18.2C59.1,18.2,59.1,18.2,59.1,18.2c-0.1,0-0.1,0-0.1,0C59,18.2,59,18.2,59.1,18.2z
			 M59,18.8l0,0.1L59,18.8l0.1-0.1L59,18.8z M59.2,19.7c0,0.1-0.1,0.1-0.1,0.1c0,0,0,0,0,0.1l-0.1-0.1L59.2,19.7z M59.4,19.7
			l-0.2,0.1C59.3,19.8,59.4,19.8,59.4,19.7C59.4,19.8,59.4,19.8,59.4,19.7L59.4,19.7z M59.4,20.4l0,0.1l-0.1,0.1l0.1,0.1l-0.1-0.1
			l0.1-0.1L59.4,20.4z M59.4,19.6L59.4,19.6L59.4,19.6L59.4,19.6L59.4,19.6z M59.8,19.5C59.8,19.6,59.9,19.6,59.8,19.5
			c0,0.1,0,0.1-0.1,0.1c0,0-0.1,0-0.1,0c0,0-0.1,0.1-0.2,0.1l0,0.1l0-0.1c0.1,0,0.1,0,0.2,0c0,0,0.1,0,0.2,0l0,0.1l0-0.1l0-0.1
			c0,0,0,0,0,0C59.8,19.6,59.8,19.6,59.8,19.5z M59.6,19.1l0-0.1C59.6,19,59.5,19,59.6,19.1C59.5,19,59.6,19.1,59.6,19.1z
			 M59.6,19.2l0.1-0.1L59.6,19.2z M60,20.6l0-0.1L60,20.6z M60.1,19.5l0,0.1L60.1,19.5z M60.3,20.6l0.2-0.1c0,0,0,0,0-0.1
			c-0.1,0-0.1,0-0.2,0L60.3,20.6z M60.4,21.1l0.1-0.1C60.5,21,60.4,21,60.4,21.1C60.4,21.1,60.4,21.1,60.4,21.1z M60.7,20.5l0.1-0.1
			L60.7,20.5l-0.1-0.1l0-0.1c-0.1,0.1-0.1,0.1,0,0.1c0,0,0,0,0.1,0L60.7,20.5z M61.1,20.9C61.1,20.9,61.1,20.9,61.1,20.9
			c0,0-0.1,0-0.1,0.1L61.1,20.9z M61.1,21.4l0.1-0.1L61.1,21.4z M61.5,21.2l0-0.1c-0.1,0-0.1,0-0.2,0c-0.1,0-0.1,0-0.1,0.1
			c0.1,0,0.1,0,0.2,0c0,0,0.1-0.1,0.1-0.1L61.5,21.2z M61.6,21.8l0.1,0.1l0.1-0.1L61.6,21.8z"/>
		<path class="st2" d="M66,11.8l0.1,0.4l0.2,0.7c-0.1,0.1-0.1,0.2,0,0.3c0,0.1,0.1,0.2,0.2,0.3l0.3,0.9l0.3,0.8l0.3,1.1l0.1,0.4
			c0.1,0.3,0.2,0.7,0.3,1.1c0.1,0.4,0.2,0.7,0.2,1l0.1,0.3c-0.1,0.2-0.2,0.4-0.3,0.6c-0.1,0.2-0.2,0.4-0.2,0.5
			c-0.1,0.2-0.2,0.3-0.3,0.4c-0.1,0.1-0.3,0.2-0.5,0.3c-0.3,0.2-0.5,0.4-0.8,0.5c-0.3,0.1-0.6,0.1-1,0c-0.1,0-0.2-0.1-0.3-0.1
			c-0.1,0-0.2,0-0.3,0c-0.4-0.1-0.6-0.2-0.8-0.4c-0.2-0.2-0.3-0.4-0.5-0.6c-0.1-0.2-0.2-0.4-0.3-0.6c-0.1-0.2-0.1-0.4-0.1-0.6
			l-0.1-0.2c-0.2-0.1-0.2-0.2-0.1-0.4l0-0.1c-0.1-0.1-0.2-0.2-0.2-0.3c0-0.1,0-0.2,0-0.3c0,0,0,0,0.1-0.1c0-0.1,0-0.1-0.1-0.1
			c0-0.1-0.1-0.1-0.1-0.2c-0.1,0-0.1-0.1-0.1-0.1c-0.1-0.2-0.1-0.4-0.2-0.5c0-0.2-0.1-0.4,0-0.6l-0.1-0.3c0-0.1-0.1-0.2-0.1-0.3
			c-0.1-0.1-0.1-0.3-0.3-0.4l0-0.1c0-0.3-0.1-0.5-0.2-0.7c-0.1-0.2-0.2-0.4-0.3-0.7c0,0,0-0.1,0-0.1c0,0,0,0,0.1,0
			c-0.1-0.1-0.2-0.3-0.2-0.5c0-0.2-0.1-0.4-0.1-0.6c-0.1-0.2-0.1-0.4,0.1-0.5c0.1-0.1,0.3-0.2,0.5-0.3l0.3-0.1c0.2,0,0.3,0,0.4,0.1
			c0.1,0,0.1,0.1,0.2,0.3l0.2,0.7c0,0.1,0.1,0.2,0.1,0.3c0,0.1,0.1,0.2,0.2,0.2c0,0.1,0.1,0.3,0,0.4c0,0.1,0,0.3,0,0.4
			c0.2,0.2,0.3,0.4,0.3,0.6c0,0.2,0.1,0.4,0.1,0.6c0.1,0.2,0.2,0.5,0.3,0.7c0.1,0.2,0.2,0.5,0.2,0.7l0.1,0.2
			c0.1,0.2,0.2,0.3,0.3,0.6c0,0.2,0.1,0.5,0.2,0.7l0.3,1.1c0,0.1,0.1,0.2,0.2,0.3c0.1,0.1,0.2,0.2,0.2,0.3l0.2,0.1
			c0.1,0,0.2,0,0.3,0c0.1,0,0.3,0,0.5,0l0.1,0c0-0.1,0.1-0.2,0.2-0.2c0.1-0.1,0.1-0.1,0.2-0.2c0,0,0,0,0.1,0c0,0,0.1-0.1,0-0.1
			c0-0.2,0-0.4,0-0.6c-0.1-0.2-0.1-0.4-0.2-0.6l-0.1-0.2l-1.4-4.5c0-0.1,0-0.1,0-0.2c0-0.1,0-0.1-0.1-0.2l-0.1-0.4l-0.4-1.2
			c-0.1-0.2,0-0.4,0.2-0.6c0.2-0.2,0.4-0.3,0.7-0.3c0.1,0,0.2,0,0.2,0c0.1,0,0.2,0,0.3,0l0.1,0.1c0.1,0,0.1,0.1,0.1,0.1l0.3,0.8
			L66,11.8z M61.6,12.3l-0.1,0l0,0.1c0.1,0,0.1,0,0.1,0C61.6,12.4,61.6,12.4,61.6,12.3z M61.6,14.5l0.1,0L61.6,14.5z M61.9,13.6
			l-0.2,0.1L61.9,13.6z M62,14.5l-0.2,0.1l0,0.1c0.1,0,0.1,0,0.1-0.1C62,14.6,62,14.6,62,14.5z M62.4,16.5l0.2-0.1l0-0.1
			C62.5,16.3,62.4,16.3,62.4,16.5C62.4,16.4,62.4,16.4,62.4,16.5z M62.5,16.2l0.2-0.1l0-0.1c0,0.1,0,0.1,0,0.1
			C62.6,16.1,62.6,16.1,62.5,16.2z M62.8,17c0,0-0.1,0-0.2,0C62.7,17,62.7,17,62.8,17c0.1,0.1,0.1,0.1,0.2,0.1
			C62.9,17,62.8,17,62.8,17z M63.1,17.4C63.1,17.4,63.1,17.4,63.1,17.4c-0.1-0.1-0.1-0.1-0.2,0c0,0,0,0.1,0,0.1
			C62.9,17.4,63,17.4,63.1,17.4z M63,18.3l0.2-0.1l0.2,0l-0.2,0L63,18.3z M63.4,18.9c-0.1,0-0.1,0.1-0.1,0.1
			C63.3,19,63.3,19,63.4,18.9L63.4,18.9z M63.6,19.6L63.6,19.6L63.6,19.6l-0.2,0.1L63.6,19.6z M63.7,19.3l0-0.1l-0.2,0.1
			c0,0.1,0,0.1,0.1,0.1C63.5,19.3,63.6,19.3,63.7,19.3z M63.6,19.1l0.1,0L63.6,19.1z M63.7,20l0.2-0.1L63.7,20z M63.8,19.4
			L63.8,19.4C63.9,19.5,63.9,19.5,63.8,19.4C63.9,19.4,63.9,19.4,63.8,19.4L63.8,19.4z M64,20L64,20c-0.1-0.1-0.1-0.1-0.1,0
			c0,0,0,0,0,0.1L64,20z M64.2,19.9c-0.1,0-0.1,0-0.1,0.1c0,0,0,0.1,0,0.1c0,0,0,0,0-0.1C64.1,20,64.1,19.9,64.2,19.9z M64.4,20.5
			l0.1,0c0,0,0-0.1,0,0C64.5,20.4,64.5,20.5,64.4,20.5L64.4,20.5L64.4,20.5z M64.6,20.1l0.2,0.1l0-0.1L64.6,20.1z M64.7,11.1
			c0,0,0,0.1,0,0.1l0.1,0l0-0.1C64.7,11,64.7,11,64.7,11.1z M65.1,12c-0.1,0-0.1,0-0.1,0c0,0-0.1,0-0.1,0.1l0.2,0.1
			c0-0.1,0-0.1,0-0.1C65,12,65,12,65.1,12z M65,11.2c0.1,0,0.1,0,0.1,0c0,0,0,0,0.1,0.1c0-0.1,0-0.1-0.1-0.1
			C65.1,11.1,65.1,11.2,65,11.2c0.1-0.1,0.1-0.1,0.1-0.1C65.1,11,65.1,11.1,65,11.2L65,11.2z M65,20.4l0-0.1L65,20.4l0,0.1l0.1,0
			c-0.1,0.3,0.1,0.4,0.6,0.2l0-0.1c0.1,0,0.2,0.1,0.3,0c0.1,0,0.2,0,0.2-0.1c0,0,0,0,0,0c0,0-0.1,0-0.1,0l0.1,0l-0.1,0
			c0,0.1,0,0.1-0.1,0.1c-0.1,0-0.2,0-0.2,0c-0.1,0-0.2,0-0.3,0.1c-0.1,0-0.2,0-0.2-0.1C65.2,20.5,65.1,20.5,65,20.4c0,0,0,0.1,0,0.1
			L65,20.4z M65.1,12.5c0-0.1,0.1-0.1,0.1-0.1c0,0,0-0.1,0-0.1l-0.1,0L65.1,12.5C65.1,12.5,65.1,12.5,65.1,12.5c0.1,0,0.1,0,0.2,0.1
			C65.2,12.5,65.2,12.5,65.1,12.5c0,0.1,0,0.1,0,0.1l0.1,0l0.2-0.1c0.1,0,0.1-0.1,0.1-0.1c0,0-0.1,0-0.1,0l-0.2,0.1L65.1,12.5z
			 M65.3,12.7l-0.1,0.1L65.3,12.7c0,0.1,0,0.1,0,0.1c0,0-0.1,0-0.1-0.1L65.3,12.7z M65.3,12.3C65.4,12.2,65.4,12.2,65.3,12.3
			c0-0.1,0-0.2,0-0.1L65.3,12.3z M65.7,13.3C65.7,13.3,65.7,13.3,65.7,13.3c0.1-0.1,0-0.1,0-0.1L65.7,13.3l-0.2,0.1c0,0,0-0.1,0-0.1
			c0-0.1,0-0.1-0.1-0.1c0,0.1,0,0.1,0.1,0.1C65.6,13.4,65.6,13.3,65.7,13.3z M65.6,13.5l0,0.1l0.2-0.1l0-0.1L65.6,13.5z M65.7,14
			l0-0.1C65.7,13.8,65.6,13.9,65.7,14C65.6,13.9,65.6,13.9,65.7,14l0,0.1L65.7,14z M65.8,20.3l0,0.1L65.8,20.3z M66.2,19.7
			c-0.1,0-0.1,0-0.1,0.1c0,0,0,0.1,0,0.1l0.2-0.1L66.2,19.7z M66.3,20.3l0-0.1L66.3,20.3z M66.5,19.8c-0.1,0-0.1,0-0.2,0
			c0,0,0,0,0-0.1l0,0.1L66.5,19.8z M66.3,20.4l0.2-0.1l0-0.1C66.3,20.3,66.3,20.3,66.3,20.4C66.3,20.3,66.3,20.3,66.3,20.4z
			 M66.4,15.6c0,0,0-0.1,0-0.1c0,0,0,0,0.1,0l0-0.1l0,0.1l-0.2,0.1l0.2,0.1l0,0.1l0-0.1l0-0.1L66.4,15.6z M66.6,16l0.2-0.1l0-0.1
			c-0.1,0-0.1,0-0.1,0.1C66.5,15.9,66.5,16,66.6,16l-0.2,0.1L66.6,16z M66.5,15.7c0,0,0.1,0,0.2,0L66.5,15.7L66.5,15.7
			C66.4,15.7,66.5,15.7,66.5,15.7z M66.7,16.4c0,0.1,0,0.1,0,0.1c0,0-0.1,0-0.1,0.1c0,0,0,0,0,0.1c0,0,0.1,0,0.2,0l-0.2,0.1
			c0,0,0-0.1,0-0.1c0,0,0,0,0.1,0L66.7,16.4l0,0.1L66.7,16.4z M66.6,19.7L66.6,19.7L66.6,19.7z M66.8,17.3l-0.1,0c0,0,0,0.1,0.1,0.1
			c0,0,0.1,0,0.1,0.1L66.8,17.3z M66.7,19.4l0.1,0l0-0.1l0,0.1L66.7,19.4z M66.9,19.6l-0.1,0L66.9,19.6z M66.8,16.8L66.8,16.8
			L66.8,16.8z M66.9,20.2L66.9,20.2L66.9,20C66.9,20,66.9,20.1,66.9,20.2C66.8,20.1,66.8,20.1,66.9,20.2L66.9,20.2z M67,19.7
			C66.9,19.7,66.9,19.8,67,19.7C67,19.8,67,19.8,67,19.7z M67.1,17.3C67.1,17.3,67.1,17.2,67.1,17.3L67,17.3
			C67.1,17.3,67.1,17.3,67.1,17.3z M67,18.1l0.2-0.1l0.2-0.1l0,0.1c0.1,0,0.1,0,0-0.1c0,0,0,0-0.1-0.1c0-0.1-0.1-0.1-0.1-0.1
			c-0.1,0-0.1,0-0.1-0.1l0,0.1c-0.1,0-0.1,0-0.1,0.1C67,18,67,18,67,18.1z M67.2,18.6l0-0.1c0.1,0,0.1,0,0.1-0.1c0,0,0,0,0-0.1
			l-0.2,0.1l0.2-0.1l0,0.1L67.2,18.6c0,0-0.1,0-0.1,0c0,0,0,0,0-0.1c0,0.1,0,0.1,0,0.1C67.1,18.6,67.1,18.6,67.2,18.6z M67.2,19.5
			c0.1,0,0.1-0.1,0.1-0.1c0,0,0,0,0-0.1c0,0-0.1,0-0.1,0C67.2,19.4,67.2,19.4,67.2,19.5z M67.3,19l0-0.1l0.2-0.1l-0.2,0.1
			C67.3,18.9,67.3,19,67.3,19c0,0,0.1,0,0.2-0.1L67.3,19z M67.6,18.8l0.1,0L67.6,18.8c-0.1-0.1-0.1-0.1-0.1-0.1
			c-0.1,0-0.1,0-0.1,0.1C67.5,18.7,67.6,18.7,67.6,18.8C67.6,18.8,67.6,18.8,67.6,18.8z"/>
		<path class="st2" d="M76.5,7.8c0.3,0,0.6-0.1,0.9,0c0.3,0,0.6,0,0.9,0l0.1,0c0.1,0,0.2,0.1,0.4,0.1C79,8,79.1,8,79.3,8.1
			c0.1,0.1,0.2,0.1,0.3,0.2c0.1,0.1,0.2,0.2,0.2,0.4c0.3,0.3,0.4,0.5,0.5,0.8c0.1,0.3,0.1,0.6,0.2,0.9c0,0.1,0,0.1,0,0.2
			c0,0.1,0,0.2,0.1,0.3l0.1,1.1l0.1,0.5c-0.1,0.1-0.1,0.1-0.1,0.2c0,0,0,0.1,0.1,0.1l0.1,0.7c-0.1,0.1-0.1,0.2-0.1,0.3
			c0,0.1,0.1,0.2,0.1,0.2c0,0.1,0,0.1,0,0.2c0,0.1,0,0.2-0.1,0.2c0,0.1,0,0.1,0.1,0.2c0.1,0.1,0.1,0.2,0.1,0.2c0,0.3,0,0.6,0,0.8
			c0,0.3-0.1,0.6-0.1,0.9c0,0.1,0,0.3-0.1,0.4c-0.1,0.2-0.2,0.3-0.2,0.4c-0.1,0.1-0.2,0.2-0.3,0.3c-0.1,0.1-0.3,0.2-0.4,0.2l-0.2,0
			c-0.1,0.1-0.2,0.2-0.3,0.2c-0.1,0.1-0.3,0.1-0.4,0.1c-0.1,0-0.3,0.1-0.4,0.1c-0.2,0-0.3,0.1-0.4,0.1c-0.1,0-0.3,0-0.5,0
			c-0.2,0-0.4,0-0.6,0.1c-0.1,0-0.2,0-0.3,0c-0.1,0-0.3-0.1-0.5-0.1l-0.2-0.1c0.1-0.1,0.1-0.2,0-0.3c-0.1-0.1-0.1-0.2-0.1-0.3
			l-0.1-0.5L75.9,16c-0.1-0.2-0.1-0.5-0.1-0.7c0-0.2,0-0.4,0-0.6c0-0.1,0-0.2-0.1-0.3c0-0.1,0-0.1,0.2-0.2l0-0.1
			c-0.2-0.1-0.2-0.2-0.2-0.3c0-0.1,0-0.2,0-0.4l0-0.3c-0.1-0.2-0.1-0.3-0.1-0.5c0-0.2,0-0.4,0-0.7l0-0.1l0-0.4
			c-0.1-0.1-0.1-0.2-0.1-0.3c0-0.1,0-0.2,0.1-0.3L75,9.2c0-0.1,0-0.2-0.1-0.3c0-0.1,0-0.2,0.1-0.4l0-0.1c0-0.1,0-0.1,0-0.1
			c0,0,0-0.1,0.1-0.1c0.1,0,0.2,0,0.3-0.1c0.1-0.1,0.2-0.1,0.3-0.1L76.5,7.8z M75.6,9l-0.1,0L75.6,9l0-0.1l0.2,0c0,0.1,0,0.1,0,0.1
			c0,0,0.1,0,0.1,0c0,0,0-0.1-0.1-0.1c0,0,0,0-0.1,0l-0.2,0L75.6,9z M76.1,11.3c-0.1,0-0.1,0-0.1,0.1c0,0,0,0,0,0
			c0,0.1,0,0.1-0.1,0.1c0,0,0,0-0.1,0l0,0.1c0.1,0,0.1,0,0.1-0.1c0,0,0,0,0-0.1l0-0.1L76.1,11.3l0,0.1L76.1,11.3l0.1,0L76.1,11.3z
			 M76,10.4l0.1,0c0,0,0-0.1-0.1-0.1c0,0,0,0-0.1,0C75.9,10.3,75.9,10.4,76,10.4C75.9,10.4,75.9,10.4,76,10.4z M75.9,9.3l0.2,0
			L75.9,9.3z M76,8.8l0-0.1L76,8.8l0.1,0L76,8.8z M76.2,10.1l-0.2,0c0,0.1,0,0.1,0,0.1c0,0,0.1,0,0.1,0L76.2,10.1z M76.1,12.4l0,0.1
			l0.2,0C76.2,12.5,76.2,12.5,76.1,12.4C76.1,12.5,76.1,12.5,76.1,12.4z M76.1,10.7C76.1,10.7,76.1,10.7,76.1,10.7l0-0.1
			C76.1,10.7,76,10.7,76.1,10.7z M76.2,13.6c-0.1,0-0.1,0-0.1,0c0,0,0,0.1,0,0.1l0.1,0L76.2,13.6l0-0.1L76.2,13.6z M76.1,12.8l0.2,0
			L76.1,12.8z M76.3,9.5C76.3,9.5,76.3,9.5,76.3,9.5c-0.1-0.1-0.1-0.1-0.1-0.1l0,0.1L76.3,9.5z M76.3,8.6l0-0.1l0-0.1l0-0.1l0,0.1
			c-0.1,0-0.1,0-0.1,0.1C76.2,8.5,76.2,8.6,76.3,8.6L76.3,8.6z M76.4,9.1l-0.1,0L76.4,9.1l0,0.1L76.4,9.1z M76.4,9.2l-0.1,0
			c0,0.1,0,0.1,0.1,0.1c0,0,0.1,0,0.1,0L76.4,9.2z M76.7,14.7l0-0.1L76.7,14.7l-0.1,0l0-0.1l-0.2,0l0,0.1l0.2,0L76.7,14.7z
			 M76.4,11.5C76.4,11.5,76.4,11.6,76.4,11.5c-0.1,0.1-0.1,0.1,0,0.1L76.4,11.5z M76.6,12.7l-0.2,0l0,0.1c0.1,0,0.1,0,0.1,0
			C76.6,12.8,76.6,12.8,76.6,12.7z M76.4,13.8l0,0.1L76.4,13.8z M76.6,8.3l0-0.1C76.5,8.2,76.5,8.2,76.6,8.3c0,0-0.1,0-0.1,0
			L76.6,8.3z M76.5,13.7c0.1-0.1,0.1-0.1,0-0.2c-0.1,0-0.1-0.1-0.1-0.2l0.2,0l-0.2,0l0.2,0l0-0.1l0.1,0l-0.1,0l0,0.1l-0.2,0
			c-0.1,0.1-0.1,0.1,0,0.2C76.5,13.6,76.5,13.6,76.5,13.7z M76.6,11.9l-0.1-0.1l0,0.1L76.6,11.9z M76.6,8.5l0,0.1
			c-0.1,0-0.1,0-0.1,0c0,0,0,0.1,0,0.1c0.1,0,0.1,0,0.1,0c0,0,0,0,0-0.1c-0.1,0-0.1,0-0.1,0C76.5,8.6,76.5,8.6,76.6,8.5l-0.1,0
			L76.6,8.5z M76.5,15.8l0.2,0c0,0,0-0.1,0-0.1c0,0-0.1,0-0.2,0L76.5,15.8z M76.5,17.2l0-0.1l0.2,0.1c0-0.1,0-0.1,0-0.1
			c0,0-0.1,0-0.1,0L76.5,17.2z M76.7,14c0-0.1,0-0.1,0-0.1c0,0-0.1,0-0.2,0l0,0.1L76.7,14z M76.7,14.9c-0.1,0-0.1,0-0.1,0
			c0,0,0,0.1,0,0.1l0.1,0L76.7,14.9z M76.9,15.1l0-0.1c-0.1,0-0.1,0-0.1,0c0,0,0,0,0,0.1l-0.1,0l0.1,0L76.9,15.1z M76.6,8.9
			C76.6,8.9,76.7,8.9,76.6,8.9c0,0.1,0.1,0.1,0.2,0.1C76.8,8.9,76.8,8.9,76.6,8.9C76.7,8.9,76.7,8.9,76.6,8.9z M77.4,15.9
			c0.1,0.1,0.1,0.2,0.1,0.3c0,0.1,0,0.2,0.1,0.3c0,0.1,0.1,0.2,0.2,0.3c0.1,0.1,0.2,0.2,0.3,0.2l0.1,0c0.1-0.1,0.1-0.1,0.1-0.1
			c0,0,0.1,0,0.1-0.1c0.2,0,0.3-0.1,0.4-0.1c0.1-0.1,0.2-0.1,0.3-0.2c0.1-0.1,0.1-0.3,0.2-0.4c0-0.1,0.1-0.3,0-0.4
			c0-0.2-0.1-0.4-0.1-0.6s-0.1-0.4,0-0.6l0-0.1c0-0.1-0.1-0.2-0.1-0.3s0-0.2,0-0.3c0-0.1,0-0.2,0-0.2c0-0.1,0-0.1-0.1-0.2l-0.1-0.6
			L79,11.4l-0.1-0.6l0-0.1l-0.1-0.5c0,0,0-0.1,0-0.2c0-0.1-0.1-0.2-0.1-0.2c-0.3-0.6-0.7-0.8-1.5-0.5c-0.1,0-0.3,0.1-0.4,0.2
			c-0.1,0.1-0.2,0.3-0.1,0.5c0.1,0.2,0.1,0.4,0.2,0.6c0,0.2,0,0.4,0,0.6c0,0.1,0,0.1,0.1,0.2c0,0,0.1,0.1,0.1,0.2
			c-0.1,0.1-0.1,0.1,0,0.2c0,0.1,0.1,0.1,0.1,0.2l0.1,0.5c0,0.1,0,0.1,0,0.2c0,0.1,0,0.1-0.1,0.2c0,0,0,0.1,0,0.1c0,0,0,0.1,0.1,0.1
			c0,0,0.1,0.1,0.1,0.1c0,0,0.1,0.1,0.1,0.1c0,0.2,0,0.5,0,0.8c0.1,0.3,0.1,0.5,0,0.8l0,0.1c0.1,0,0.1,0.1,0.1,0.2
			c0,0.1,0,0.2,0.1,0.3c0,0.1-0.1,0.2,0,0.3C77.5,15.6,77.5,15.8,77.4,15.9z M76.9,16.3l-0.1,0L76.9,16.3z M76.8,17.9l0.2,0
			C76.9,17.9,76.9,17.8,76.8,17.9c0-0.1,0-0.1,0-0.1L76.8,17.9z M77.1,17C77,17,77,17,77,17c0,0-0.1,0-0.1-0.1l0,0.1c0,0,0,0,0.1,0
			c0.1,0,0.1,0,0.1,0.1c0,0,0,0,0.1,0C77.1,17.1,77.1,17.1,77.1,17z M77.1,8.6l-0.2,0c0,0.1,0,0.1,0,0.1c0,0,0.1,0,0.2,0L77.1,8.6z
			 M77,17.3l0.2,0c0,0,0,0,0.1,0c0,0,0.1-0.1,0.1-0.1l-0.1,0l0,0.1L77,17.3l0,0.1c0.1,0,0.1,0.1,0.1,0.1c0,0,0,0-0.1,0
			c0,0,0,0.1,0,0.1c0,0,0.1,0.1,0.2,0.1l0.1,0l0.3,0l0-0.1c-0.1,0-0.2,0-0.2,0c-0.1,0-0.1,0.1-0.1,0.1l-0.1,0c0-0.1,0-0.1,0-0.2
			c0-0.1-0.1-0.1-0.2-0.2L77,17.3z M77.4,8.5C77.4,8.5,77.4,8.5,77.4,8.5c0.1,0.1,0.1,0,0.1,0C77.4,8.5,77.4,8.4,77.4,8.5
			C77.4,8.5,77.4,8.5,77.4,8.5z M77.5,8.4l0.1,0l0.2,0c0,0,0,0,0,0.1c0,0,0.1,0,0.1,0l0-0.1c0,0,0-0.1-0.1,0c0,0,0,0-0.1,0.1l-0.2,0
			L77.5,8.4z M77.8,17.4l0-0.1l-0.1,0c0,0,0,0,0,0.1C77.7,17.4,77.7,17.4,77.8,17.4z M78.2,8.7l-0.1,0L78.2,8.7z M78.3,8.3l0,0.1
			l-0.1,0L78.3,8.3z M78.5,8.7l-0.2,0L78.5,8.7c0,0.1,0,0.1,0,0.1c0,0,0,0,0.1,0L78.5,8.7z M78.4,8.4l0-0.1L78.4,8.4z M79,17.4
			l-0.2,0L79,17.4l0-0.1L79,17.4z M79,9.1l0,0.1L79,9.1z M79,9.6l0.1,0l0-0.1L79,9.6z M79.3,17l0,0.1l-0.1,0.1l0-0.1
			c0.1,0,0.1,0,0.1,0C79.3,17.1,79.3,17,79.3,17l0.1,0L79.3,17z M79.3,9c0,0.1,0,0.1,0.1,0.1c0,0,0,0,0.1,0l0,0.1l0-0.1
			C79.4,9.1,79.3,9.1,79.3,9C79.3,9.1,79.3,9,79.3,9z M79.5,10.4l0.1,0L79.5,10.4l-0.2-0.1C79.3,10.4,79.3,10.4,79.5,10.4
			C79.4,10.4,79.4,10.4,79.5,10.4z M79.5,9.9l-0.1,0C79.4,9.9,79.5,9.9,79.5,9.9c0,0.1,0,0.1,0,0.1L79.5,9.9z M79.7,16.9l0-0.1
			l-0.1,0l0,0.1L79.7,16.9z M79.6,10.6l0-0.1L79.6,10.6z M79.6,17.4C79.6,17.5,79.7,17.5,79.6,17.4c0.1,0.1,0.1,0,0.1,0L79.6,17.4z
			 M79.7,12l0-0.1l0.1,0l-0.1-0.1l0,0.1L79.7,12z M80,10.6C79.9,10.6,79.9,10.6,80,10.6c0-0.1,0-0.1-0.1-0.1c0,0-0.1-0.1-0.1,0
			c0,0.1,0,0.1,0.1,0.1C79.9,10.6,79.9,10.6,80,10.6C79.9,10.6,79.9,10.6,80,10.6c0,0,0.1,0,0.2,0C80,10.7,80,10.7,80,10.6z
			 M80,13.3c0-0.1,0-0.1-0.1-0.1c0,0-0.1,0-0.1-0.1l0.1,0l0-0.1c-0.1,0.1-0.1,0.1,0,0.1c0,0,0,0-0.1,0c0,0,0,0.1,0,0.1
			C79.9,13.2,79.9,13.2,80,13.3z M79.9,11.1l0,0.1l0.1,0l0,0.1l0-0.1l-0.1,0L79.9,11.1z M79.9,13.6l0-0.1l0.1,0l-0.1,0L79.9,13.6z
			 M79.9,12.7l0.2,0L79.9,12.7l0,0.1L79.9,12.7z M80,11.9l0-0.1L80,11.9z M80.3,12.5c-0.1,0-0.1,0-0.2,0c0,0-0.1,0-0.1-0.1l0,0.1
			L80.3,12.5z M80.2,11.8c0,0,0,0,0-0.1l-0.2,0l0,0.1C80.2,11.8,80.2,11.8,80.2,11.8z M80.2,13.9l-0.2,0L80.2,13.9z M80.3,14.2
			l0-0.1L80.3,14.2l0,0.1L80.3,14.2z"/>
		<path class="st2" d="M85,7l1.7-0.1c0.3,0,0.6,0,0.7,0.1c0.2,0.1,0.2,0.2,0.2,0.4c0,0.3,0,0.4-0.2,0.6c-0.1,0.1-0.3,0.2-0.5,0.2
			c-0.3,0.1-0.6,0.1-0.8,0.1c-0.2,0-0.5,0-0.7-0.1c-0.2,0-0.3,0-0.4,0.1c-0.1,0.1-0.2,0.1-0.2,0.2c-0.2,0.1-0.3,0.1-0.3,0.2
			c-0.1,0.1-0.1,0.2-0.1,0.3l0.1,1.8c0,0.2,0.1,0.4,0.3,0.5c0.2,0.1,0.4,0.2,0.6,0.2c0.2,0,0.3,0,0.5,0c0.2,0,0.3-0.1,0.4-0.1
			c0.2,0,0.3,0,0.5,0.1c0.1,0.1,0.3,0.1,0.4,0.1c0,0,0.1,0,0.1,0.1c0,0,0,0,0,0.1c0.1,0.1,0.1,0.3,0.2,0.4c0,0.2,0,0.3-0.2,0.4
			c-0.1,0.1-0.1,0.2-0.2,0.3C86.9,13,86.8,13,86.8,13l-1.4,0.1c-0.1,0-0.3,0-0.5,0.1c-0.2,0.1-0.3,0.2-0.3,0.3
			c-0.1,0.2-0.1,0.4-0.1,0.5c0,0.1,0,0.3,0,0.5l0,0.7c0,0.1,0,0.2,0,0.4c0,0.1,0.1,0.2,0.1,0.4c0.1,0.2,0.3,0.3,0.5,0.3
			c0.3,0.1,0.5,0,0.7,0c0.2,0,0.5,0,0.7,0c0.2,0,0.5,0,0.7,0.1c0.3,0,0.5,0.1,0.5,0.3c0.1,0.1,0.1,0.2,0.1,0.3c0,0.1,0,0.2,0,0.3
			c0,0.1-0.1,0.2-0.2,0.3c-0.1,0.1-0.3,0.2-0.4,0.2c-0.6,0.1-1.2,0.1-1.8,0.2c-0.6,0-1.2,0.1-1.7,0.1c-0.6,0-0.9-0.2-0.9-0.7
			l-0.1-1.4l0-0.4c0.1-0.1,0.1-0.2,0-0.4c0-0.1-0.1-0.3-0.1-0.5l0-1.1c0.1-0.1,0.1-0.3,0.1-0.4c0-0.1,0-0.2,0.1-0.4
			c-0.1-0.2-0.1-0.3-0.1-0.4c0-0.1,0-0.3,0-0.5l0-0.4l0-0.1c0.1-0.3,0.1-0.6,0-0.8c0-0.3-0.1-0.5-0.1-0.7l-0.1-1.6
			c0.1-0.1,0.1-0.1,0.1-0.3c0-0.1,0-0.2,0-0.3c0-0.2,0.1-0.3,0.2-0.4c0.1-0.1,0.3-0.1,0.4-0.1L85,7z M83.1,8.5
			c0.1,0.1,0.1,0.1,0.1,0c0,0,0.1-0.1,0.1-0.1c0,0-0.1,0-0.1,0c0,0-0.1,0.1-0.1,0.1l0.1,0l0-0.1L83.1,8.5z M83.1,9.3l0-0.1L83.1,9.3
			z M83.6,9.4C83.6,9.3,83.6,9.3,83.6,9.4c0.1-0.1,0.1-0.2,0-0.2c0,0.1,0,0.1,0,0.1c0,0-0.1,0-0.1,0l-0.1,0c-0.1,0-0.1,0-0.1,0.1
			c0,0,0,0,0.1,0l0,0.1l0-0.1l0.2,0.1l0.1,0L83.6,9.4z M83.4,8c-0.1,0-0.1,0-0.1,0c0,0,0,0.1,0,0.1l0-0.1L83.4,8z M83.4,11.8
			l-0.1,0.1L83.4,11.8z M83.3,9.9l0.1,0L83.3,9.9l0,0.1l0.1,0l0-0.1L83.3,9.9l0-0.1L83.3,9.9z M83.4,10.3l0.2,0c0,0,0,0,0-0.1
			c0,0-0.1-0.1-0.1-0.1l0-0.1l0,0.1c0,0,0.1,0,0.1,0.1c0,0,0,0,0,0.1L83.4,10.3l-0.1,0L83.4,10.3z M83.3,10.7l0.1,0L83.3,10.7z
			 M83.7,14c-0.1,0-0.1,0-0.2,0c0,0-0.1,0-0.2-0.1L83.3,14l0.1,0c0,0,0.1,0,0.1,0c0.1,0,0.1,0,0.2,0.1L83.7,14z M83.5,7.7l-0.1,0.1
			C83.4,7.8,83.4,7.8,83.5,7.7C83.5,7.7,83.5,7.7,83.5,7.7z M83.4,12.4l0,0.1l0.1,0c0,0,0,0,0-0.1C83.5,12.4,83.4,12.4,83.4,12.4z
			 M83.6,13.5l-0.1,0l0,0.1c0.1,0,0.1,0,0.1,0C83.6,13.6,83.6,13.6,83.6,13.5z M83.5,7.9l0,0.1L83.5,7.9z M83.5,15.3l0-0.1
			L83.5,15.3l0,0.1L83.5,15.3z M83.5,8.4l0,0.1L83.5,8.4z M84,11.2C83.9,11.2,83.9,11.2,84,11.2c-0.1,0-0.1,0.1-0.1,0.1
			C83.8,11.3,83.8,11.2,84,11.2C83.9,11.2,83.9,11.2,84,11.2c-0.1,0-0.1,0-0.1,0c0,0,0,0,0-0.1l-0.2,0c0,0.1,0,0.1,0,0.1
			c0,0,0.1,0,0.2,0L84,11.2z M83.7,8.2l0.1,0.1l0-0.1L83.7,8.2z M83.9,12.5l-0.2,0c0,0,0,0.1,0,0.1c0,0,0.1,0,0.2,0L83.9,12.5z
			 M83.8,8.4l-0.1,0L83.8,8.4z M83.8,14.7l0.2,0l0-0.1C83.9,14.6,83.8,14.6,83.8,14.7C83.8,14.7,83.8,14.7,83.8,14.7z M83.8,7.5
			l0-0.1L83.8,7.5c0,0.1,0,0.1,0,0.1c0,0,0.1,0,0.1,0C83.9,7.6,83.8,7.6,83.8,7.5C83.9,7.5,83.9,7.5,83.8,7.5z M84,15.1
			C84,15.1,84,15.1,84,15.1C84,15.1,84,15,84,15c0-0.1,0-0.1-0.1-0.1l-0.2,0.1l0,0.1C83.9,15.2,83.9,15.2,84,15.1z M83.8,10.8l0,0.1
			c0,0,0,0,0,0.1c0,0,0.1,0.1,0.1,0.1l0-0.1c0-0.1,0-0.1,0-0.1C83.9,10.8,83.9,10.8,83.8,10.8z M83.9,16.7
			C83.9,16.8,83.9,16.8,83.9,16.7c0,0.1,0.1,0.1,0.2,0L83.9,16.7l0.2,0l0-0.1l-0.2,0L83.9,16.7z M84.3,16.5l0-0.1l-0.1,0
			C84.2,16.4,84.2,16.5,84.3,16.5C84.3,16.5,84.3,16.5,84.3,16.5z M84.2,12.8l0,0.1l0.2,0l-0.2,0L84.2,12.8z M84.3,12.6l0,0.1
			L84.3,12.6z M84.6,12C84.6,12.1,84.6,12.1,84.6,12c0,0.1,0.1,0.1,0.2,0.1l0,0.2l-0.2,0c0-0.1,0-0.1,0-0.1c0,0-0.1,0-0.1,0.1l0.1,0
			l0.2,0c0,0,0,0,0.1-0.1c0-0.1,0-0.1-0.1-0.2C84.7,12.1,84.6,12.1,84.6,12C84.6,12.1,84.6,12.1,84.6,12z M84.5,7.6
			c-0.1,0.1-0.1,0.1-0.1,0.1c0,0,0,0,0.1,0l0,0.1l0-0.1L84.5,7.6z M84.6,17C84.6,17,84.6,16.9,84.6,17c0-0.1-0.1-0.1-0.2-0.1
			L84.6,17C84.6,17,84.6,17,84.6,17c-0.1,0.1-0.1,0.1,0,0.1L84.6,17z M84.6,16.6l0-0.1l0-0.1l0,0.1L84.6,16.6l0,0.1L84.6,16.6z
			 M84.9,7.6l0.1,0C84.9,7.6,84.9,7.6,84.9,7.6c0,0-0.1-0.1-0.2-0.1c0,0.1,0,0.1,0,0.2C84.8,7.7,84.8,7.7,84.9,7.6z M85,12l-0.1,0
			l0.2,0.1L85,12z M85.1,16.8l0.1-0.2l-0.1,0c0,0,0-0.1-0.1-0.1c-0.1,0-0.1,0-0.1,0.1c0,0.1,0,0.1,0,0.1C85,16.8,85,16.8,85.1,16.8z
			 M85.4,17.4l0.1-0.1l0.2-0.1l0,0.1l0-0.1c0-0.1,0-0.1,0-0.1c0,0-0.1,0-0.2,0l0,0.1c0,0,0,0,0,0c0,0-0.1,0-0.1,0l-0.1,0l0-0.1
			l0,0.1c0.1,0,0.1,0,0.2,0.1c0,0,0.1,0.1,0.2,0.1L85.4,17.4z M85.5,8l0-0.1L85.3,8L85.5,8z M85.6,7.4C85.6,7.4,85.6,7.4,85.6,7.4
			c0-0.1-0.1-0.1-0.2-0.1l0,0.1L85.6,7.4z M85.5,16.9l0.2,0L85.5,16.9z M85.9,7.3l0,0.1l0.1,0l0-0.1L85.9,7.3z M86.1,12.2l0,0.1
			L86.1,12.2z M86.4,7.5C86.4,7.6,86.5,7.6,86.4,7.5c0.1,0.1,0.2,0,0.1,0L86.4,7.5z M86.8,16.6l0.2,0c0,0,0-0.1,0-0.1
			c0,0-0.1,0-0.1,0L86.8,16.6l-0.2,0L86.8,16.6z M86.9,17l0.1,0L86.9,17l0-0.1L86.9,17z"/>
		<path class="st2" d="M101.1,10.6c0,0.1,0,0.2-0.1,0.3c0,0.1-0.1,0.2-0.2,0.3c0,0.1-0.1,0.2-0.1,0.3c0,0.1,0,0.2-0.1,0.3
			c0,0.1-0.1,0.2-0.1,0.3c0,0.1-0.1,0.1-0.2,0.2c-0.1,0.1-0.1,0.1-0.2,0.2c0,0-0.1,0.1-0.2,0.1c-0.3,0.2-0.3,0.3-0.1,0.5
			c0.1,0.1,0.1,0.2,0.2,0.3c0,0,0,0.1-0.1,0.2l0,0.1c0.1,0,0.2,0,0.2,0.1c0,0.1,0,0.1,0,0.2c0.1,0.1,0.1,0.3,0.1,0.5
			c0,0.2,0,0.3-0.1,0.5c0,0.1,0,0.3,0,0.4c0,0.2,0,0.3-0.1,0.4c0,0.1,0,0.3,0,0.4c0,0.1-0.1,0.2-0.2,0.3l0,0.1
			c0.1,0.1,0.1,0.3,0,0.4c-0.1,0.2-0.1,0.3-0.2,0.4c-0.3,0.3-0.5,0.5-0.8,0.6c-0.3,0.1-0.6,0.2-1,0.3c-0.2,0-0.3,0-0.4,0
			c-0.1,0-0.2-0.1-0.4-0.1c-0.3,0-0.6,0-0.8,0c-0.2,0-0.5,0-0.8-0.1c-0.1,0-0.3-0.1-0.4-0.1c-0.1-0.1-0.2-0.2-0.3-0.3l0-0.2
			c0-0.1,0-0.2,0-0.4c0-0.1,0-0.2,0.1-0.4l0-0.1c0-0.3,0-0.5,0-0.8c0.1-0.3,0.1-0.5,0-0.8c0.1-0.2,0.1-0.4,0.1-0.6
			c0-0.2,0-0.4,0-0.6l0-0.3c0.1-0.1,0.1-0.2,0.2-0.3c0-0.1,0-0.2,0.1-0.3l0-0.3l0-0.4l0.2-1.7c0-0.2,0-0.5,0.1-0.7
			c0-0.2,0-0.4-0.1-0.6l0.1-0.6C96,8.6,96,8.5,96,8.4c0-0.1,0-0.2,0.1-0.4l0.1-0.5c0.1-0.1,0.2-0.1,0.2-0.1c0.1,0,0.2,0,0.2,0
			c0.2,0,0.4,0,0.7,0c0.2,0,0.4,0,0.6,0c0.1,0,0.1,0,0.2,0c0.1,0,0.1,0.1,0.1,0.1l0.7,0.1c0-0.1,0.1-0.1,0.2-0.1
			c0.1,0,0.2,0.1,0.3,0.1c0.1,0.1,0.3,0.1,0.4,0.2C99.9,8,100,8.1,100,8.1c0.1,0.1,0.1,0.1,0.2,0.1c0,0,0.1,0,0.1,0
			c0.1,0.1,0.3,0.3,0.4,0.4c0.1,0.2,0.2,0.3,0.3,0.5c0,0.3,0.1,0.5,0.1,0.7C101.2,10.1,101.2,10.3,101.1,10.6z M95.6,16.2l-0.1,0
			L95.6,16.2z M95.8,15.5c-0.1,0-0.1,0-0.1,0c0,0,0-0.1,0-0.1l-0.2,0l0.2,0l0,0.1c0,0,0,0.1,0,0.1c0,0,0.1,0,0.1,0L95.8,15.5z
			 M96,14.8l-0.3,0c0,0,0,0.1-0.1,0.2c0,0-0.1,0-0.1,0.1c0.1,0.1,0.1,0.1,0.1,0c0,0,0-0.1,0-0.1c0.1,0,0.1,0,0.2,0
			C96,14.9,96,14.9,96,14.8z M95.9,14.7c0,0,0,0,0-0.1l-0.2,0.1C95.9,14.7,95.9,14.7,95.9,14.7z M95.8,16.7l0-0.1L95.8,16.7z
			 M96.2,16.8l-0.2,0L96.2,16.8l0.1,0L96.2,16.8z M96.1,13.6l0-0.1c0,0,0.1,0,0.1,0.1c0,0,0,0,0,0.1l0,0.1c0,0.1,0,0.1-0.1,0.1
			c0,0,0,0,0.1,0l0-0.1l0-0.1c0,0,0,0,0.1,0c0.1,0,0.1,0,0.1-0.1l-0.3,0C96,13.5,96,13.5,96.1,13.6C96,13.6,96,13.6,96.1,13.6l0,0.1
			L96.1,13.6z M96,12.4l0-0.1L96,12.4z M96.4,12.3L96.4,12.3c0.1-0.1,0.1-0.1,0.1-0.1c0,0,0,0,0-0.1c0,0,0,0,0.1,0c0,0,0-0.1,0-0.1
			l0,0.1l0-0.2c-0.1,0-0.1,0-0.1,0.1c0,0.1,0,0.1,0,0.2L96.4,12.3l-0.1-0.1l0-0.1l-0.2,0l0,0.1l0-0.1l0.2,0l0,0.1L96.4,12.3
			L96.4,12.3z M96.1,14.6l0.1,0L96.1,14.6z M96.2,17.3l0,0.1L96.2,17.3l-0.1,0L96.2,17.3z M96.1,13.2l0-0.1L96.1,13.2z M96.4,10.5
			l-0.1,0l0,0.1c0.1,0,0.1,0,0.1,0C96.4,10.6,96.4,10.6,96.4,10.5z M96.5,8.7l-0.1,0L96.5,8.7z M96.5,11.6l0-0.1c-0.1,0-0.1,0-0.1,0
			C96.4,11.5,96.4,11.5,96.5,11.6z M96.5,12.3l0.3,0l0,0.1l0.2,0c0,0,0-0.1-0.1-0.1c0,0,0,0-0.1,0c0,0,0-0.1-0.1-0.1
			C96.7,12.3,96.6,12.3,96.5,12.3l0,0.1L96.5,12.3z M96.5,9.6l0,0.1L96.5,9.6l0.1,0l0,0.1l0-0.1L96.5,9.6z M96.9,10.8
			c-0.1,0-0.1,0-0.2,0c0,0-0.1,0.1-0.2,0l0.1,0l0.2,0.1L96.9,10.8z M96.6,13l0.1,0l0-0.1l-0.1,0c-0.1,0-0.1,0-0.1,0
			C96.6,12.8,96.6,12.9,96.6,13z M96.6,11.6l0.2,0L96.6,11.6z M98.9,14.9c0-0.1,0-0.1,0-0.2c0-0.1,0-0.1,0.1-0.2c0-0.1,0-0.2,0-0.3
			c0-0.1-0.1-0.2,0-0.3c-0.1-0.1-0.2-0.3-0.3-0.4c-0.1-0.1-0.3-0.2-0.4-0.2c-0.1-0.1-0.3-0.1-0.4-0.1c-0.1,0-0.3,0-0.5,0.1
			c-0.1,0-0.1,0-0.1,0.1c0,0.1,0,0.1,0,0.2c0,0.1,0,0.3-0.1,0.4c-0.1,0.2-0.1,0.3,0,0.4l0,0.1c-0.1,0.2-0.2,0.4-0.2,0.5
			c0,0.2-0.1,0.4-0.1,0.6l0,0.2c0,0.2,0,0.3,0.1,0.5c0.1,0.1,0.2,0.2,0.4,0.3c0.2,0,0.4,0,0.6,0c0.2,0,0.3,0,0.5,0
			c0.1,0,0.1,0,0.1,0c0,0,0,0,0-0.1c0.1-0.1,0.2-0.2,0.3-0.4c0.1-0.2,0.1-0.3,0.2-0.5L98.9,14.9z M96.9,11.8
			C96.9,11.8,96.8,11.8,96.9,11.8c-0.1,0-0.1,0-0.1,0.1l0.1,0L96.9,11.8z M96.8,10.3l0.2-0.1l-0.2,0L96.8,10.3z M97,10l0-0.1
			c-0.1,0-0.1,0-0.2,0c0,0,0,0,0,0.1l0,0.1l0.2,0L97,10z M97.2,12.7l-0.1-0.1l0,0.1L97.2,12.7z M97.3,17.5l0.1,0l-0.3,0L97.3,17.5z
			 M97.3,8.1l0-0.2l-0.1,0.1C97.3,7.9,97.3,8,97.3,8.1C97.3,8,97.3,8,97.3,8.1z M98.1,11.9c0.1,0,0.3,0,0.5,0c0.2,0,0.3-0.1,0.4-0.2
			c0.1-0.1,0.2-0.2,0.3-0.4c0.1-0.2,0.1-0.3,0.1-0.4c0-0.2,0-0.3,0-0.5c0-0.1,0-0.3-0.1-0.5c0-0.2,0-0.4-0.1-0.6
			c-0.1-0.1-0.3-0.3-0.6-0.4C98.4,8.9,98.2,8.9,98,9c-0.2,0.1-0.3,0.3-0.4,0.5c-0.1,0.1-0.1,0.2-0.2,0.3c0,0.1,0,0.2-0.1,0.4
			l-0.1,1.2c0.1,0.1,0.1,0.1,0.1,0.1c0,0,0,0.1,0,0.1c0.1,0.1,0.1,0.1,0.2,0.1c0.1,0,0.2,0,0.4,0.1L98.1,11.9z M97.6,17.3
			c0-0.1,0-0.1,0-0.1c0,0-0.1-0.1-0.1-0.1l-0.1,0c0,0.1,0,0.1,0,0.1c0,0,0,0,0.1,0L97.6,17.3l0.1,0L97.6,17.3z M97.4,12.4l0,0.1
			l0.2,0C97.5,12.5,97.5,12.5,97.4,12.4C97.4,12.4,97.4,12.4,97.4,12.4z M97.5,17.3l0.2,0l0,0.1c0-0.1,0-0.1,0-0.1
			C97.6,17.3,97.5,17.3,97.5,17.3z M97.9,12.7l0-0.1c-0.1,0-0.2,0-0.2,0.1c0,0-0.1,0.1-0.1,0.1l0.1,0L97.9,12.7z M97.6,8.8l0-0.1
			L97.6,8.8z M98,12.4C98,12.3,98,12.3,98,12.4c-0.1,0-0.2,0-0.3,0l0.2-0.1l-0.2,0l0,0.1c0.1,0,0.1,0,0.2,0.1
			C97.9,12.5,98,12.4,98,12.4z M97.9,17.1l0.1,0L97.9,17.1l0,0.1l0.1,0.1c0-0.1,0-0.1,0.1-0.1c0,0,0,0-0.1,0l-0.1,0L97.9,17.1z
			 M98,17.5C98,17.5,98,17.6,98,17.5c-0.1,0.1-0.1,0.1,0,0.1L98,17.5z M98.1,12.9l0,0.1L98.1,12.9l-0.2,0L98.1,12.9z M98.2,8.5
			l0-0.1c0.1,0,0.1-0.1,0.1-0.1c0,0,0-0.1-0.1-0.1l0,0.1l0,0.1c-0.1,0-0.1,0-0.1,0C98.2,8.4,98.2,8.5,98.2,8.5l-0.1,0L98.2,8.5z
			 M98.1,17l0.2,0l0,0.1l0-0.1L98.1,17z M98.4,17.4l-0.1,0l0.1,0.1L98.4,17.4z M98.3,12.5c0,0.1,0,0.1-0.1,0.1c0,0,0,0,0,0
			L98.3,12.5l0.1,0c-0.1,0.1-0.1,0.1-0.1,0.1c0,0,0,0.1,0,0.1c0.1,0.1,0.1,0.2,0.1,0.2c0,0,0.1,0,0.2-0.1l-0.1-0.1
			c0-0.1,0-0.1,0-0.1C98.4,12.7,98.4,12.6,98.3,12.5z M98.7,8.2l0-0.1L98.7,8.2z M98.9,8.5l0,0.1c0,0,0,0,0.1,0c0,0,0.1,0.1,0.1,0.1
			c0,0,0,0,0.1,0c0.1,0,0.1,0,0.1-0.1l0,0.1l-0.2,0c0,0,0-0.1-0.1-0.1C99,8.6,98.9,8.6,98.9,8.5l-0.1,0l0,0.1l0-0.1L98.9,8.5z
			 M98.9,16.7l0-0.1C98.9,16.6,98.9,16.6,98.9,16.7C98.8,16.7,98.8,16.7,98.9,16.7z M99.2,16.5l0.1,0c0,0.1,0,0.1-0.1,0.2
			c0,0-0.1,0-0.1,0.1l0,0.1l-0.2,0l0.2,0l0-0.1l0.1,0c0-0.1,0-0.1,0.1-0.2c0.1,0,0-0.1-0.1-0.1L99.2,16.5z M99.2,12.6l0.2,0
			C99.4,12.6,99.4,12.6,99.2,12.6L99.2,12.6L99.2,12.6l-0.1-0.1L99.2,12.6L99.2,12.6z M99.3,13l-0.2-0.1l0,0.1L99.3,13z M99.3,13.4
			l0,0.1l0.1,0l0-0.1L99.3,13.4z M99.5,14C99.5,14,99.5,14,99.5,14c0-0.1-0.1-0.1-0.2-0.2l0,0.1L99.5,14z M99.4,13.6l0,0.1
			c0.1,0,0.1,0,0.2,0c0,0,0,0,0-0.1L99.4,13.6z M99.4,8.6l0-0.1C99.4,8.5,99.4,8.5,99.4,8.6c0,0,0.1,0,0.1,0
			C99.5,8.5,99.5,8.5,99.4,8.6C99.5,8.5,99.4,8.5,99.4,8.6z M99.5,11.9l0.1,0L99.5,11.9l0.1,0C99.5,12,99.5,12,99.5,11.9
			c0,0.1,0,0.1,0,0.1L99.5,11.9z M99.5,14.3C99.5,14.3,99.5,14.3,99.5,14.3c0,0.1,0.1,0.1,0.1,0.1l0-0.1L99.5,14.3z M99.7,15.1
			l-0.2,0l0,0.1c0.1,0,0.1,0,0.2,0C99.7,15.2,99.7,15.2,99.7,15.1z M99.7,14.9C99.7,14.9,99.8,14.9,99.7,14.9c0.1,0,0.1,0,0.1-0.1
			l-0.1,0L99.7,14.9C99.7,14.9,99.7,14.9,99.7,14.9c-0.2,0-0.2,0.1-0.2,0.1C99.6,15,99.7,15,99.7,14.9
			C99.7,14.9,99.7,14.9,99.7,14.9z M99.6,11.8l0-0.1L99.6,11.8z M99.8,9.3l0.1,0L99.8,9.3l0-0.1l-0.2,0l0.2,0L99.8,9.3z M99.8,15.4
			l0-0.1L99.8,15.4z M99.8,15l0,0.1c0.1,0,0.1,0,0.1,0C100,15.1,99.9,15,99.8,15z M100,15.2l-0.2,0l0.2,0.1L100,15.2z M99.9,11.9
			l0,0.1L99.9,11.9z M99.9,9l0.2,0l0-0.1l0,0.1L99.9,9z M100,11.4C100,11.4,100,11.4,100,11.4c0,0.1,0.1,0.1,0.2,0.1
			c0-0.1,0-0.1,0-0.1C100.1,11.4,100,11.4,100,11.4z M100,9.8l0.1,0L100,9.8z M100,10.8l0.2,0l-0.2-0.1L100,10.8z M100.1,10.3
			c0,0.1,0,0.1,0.1,0.2c0.1,0,0.1,0,0.2,0c-0.1,0-0.1,0-0.1-0.1C100.2,10.4,100.2,10.3,100.1,10.3z M100.2,14.7l0-0.1L100.2,14.7z"
			/>
		<path class="st2" d="M106.7,11.3l0,0.1c0,0.2,0.1,0.4,0.1,0.5c0,0.1,0,0.3,0,0.5l-0.1,0.5c0,0.4,0,0.7,0,1c0,0.3,0,0.6,0.1,0.9
			c0,0.4,0,0.8,0.1,1.2c0,0.4,0.1,0.8,0.1,1.2c0,0.2,0,0.4,0,0.5c0,0.2,0.1,0.3,0.1,0.5l0,0.1c0,0,0,0.1,0,0.2c0,0.1,0,0.2,0.1,0.3
			c0,0.2,0,0.4-0.1,0.5c-0.1,0.1-0.2,0.2-0.3,0.3c-0.1,0-0.2,0.1-0.3,0.1c-0.1,0-0.2,0-0.2,0c-0.3-0.1-0.5-0.2-0.7-0.3
			c-0.2-0.2-0.3-0.4-0.3-0.6c0-0.2,0.1-0.4,0.1-0.5c0-0.2,0-0.4,0-0.6c-0.1-0.3-0.2-0.5-0.4-0.6c-0.2-0.1-0.4-0.2-0.7-0.3
			c-0.2,0-0.4-0.1-0.6,0c-0.2,0-0.3,0.1-0.5,0.3l0,0.1c0,0.1,0,0.1,0,0.1c0,0-0.1,0-0.1,0.1c-0.1,0-0.1,0.1-0.1,0.2
			c0,0.1,0,0.2,0,0.4c0,0.1-0.1,0.1-0.1,0.2c-0.1,0-0.1,0.1-0.1,0.1c-0.1,0.1-0.2,0.2-0.3,0.2c-0.1,0.1-0.2,0.1-0.4,0.1
			c-0.1,0-0.3,0-0.4,0c-0.1,0-0.3-0.1-0.4-0.1c-0.1-0.1-0.1-0.1-0.2-0.2c0-0.1-0.1-0.1-0.1-0.2c0-0.2,0.1-0.4,0.1-0.5
			c0-0.2,0.1-0.3,0.2-0.5c0-0.1,0.1-0.2,0.2-0.4c0.1-0.1,0.1-0.3,0.2-0.4c0.1-0.1,0.2-0.3,0.2-0.4c0.1-0.2,0.1-0.3,0.3-0.5
			c0.1-0.1,0.1-0.2,0.2-0.4s0.1-0.3,0.1-0.4c0-0.1,0.1-0.3,0.1-0.4c0.1-0.1,0.1-0.3,0.2-0.4c0.1-0.2,0.2-0.3,0.3-0.5
			c0.1-0.2,0.2-0.4,0.2-0.6l0.1-0.2c0.1-0.2,0.2-0.5,0.4-0.7c0.1-0.3,0.3-0.5,0.4-0.7c0-0.1,0-0.1,0.1-0.2c0-0.1,0.1-0.2,0.2-0.2
			l0.1-0.3c0-0.1,0.1-0.3,0.1-0.4c0-0.2,0.1-0.3,0.2-0.4c0.1,0,0.1,0,0.1,0c0,0,0,0,0-0.1c0-0.2,0-0.3,0.2-0.5
			c0.2-0.1,0.4-0.2,0.6-0.2c0.1-0.1,0.2-0.1,0.2-0.1c0.1,0,0.1,0.1,0.1,0.1c0.2,0,0.3,0.1,0.4,0.1c0.1,0,0.1,0.1,0.2,0.1
			c0.1,0,0.1,0.1,0.2,0.1c0,0,0.1,0.1,0.1,0.2c0,0.2,0,0.3,0,0.5c0,0.1,0,0.3,0,0.5c0,0,0,0.1,0,0.2c0,0.1,0,0.2,0.1,0.3
			c0.1,0.1,0.1,0.1,0.1,0.2C106.8,11.1,106.7,11.2,106.7,11.3z M101.6,17.8C101.6,17.8,101.6,17.8,101.6,17.8c-0.1,0-0.1,0.1,0,0.1
			L101.6,17.8z M102,16.5C102,16.5,102,16.5,102,16.5c0,0.1-0.1,0.1-0.1,0.1l0.1,0L102,16.5z M102.1,17.8
			C102.1,17.8,102.1,17.9,102.1,17.8l0.1,0.1C102.2,17.9,102.1,17.8,102.1,17.8z M102.4,16.4C102.3,16.4,102.3,16.4,102.4,16.4
			c-0.1-0.1-0.1-0.1-0.1-0.2l0,0.1l-0.1,0c0,0,0,0.1,0.1,0.1c0,0,0.1,0,0.1,0L102.4,16.4z M103,16.7c0.1,0,0.1,0,0.1,0
			c0,0,0,0,0-0.1l-0.1,0L103,16.7c0-0.1,0-0.1,0-0.2c0-0.1,0-0.1-0.1-0.1c-0.1,0-0.1,0-0.1,0.1c0,0,0,0.1,0,0.1l-0.1,0l-0.1,0l0,0.1
			c0.1,0,0.1,0,0.1,0c0,0,0,0,0-0.1c0,0,0,0.1,0.1,0.1c0,0,0,0,0.1,0l0,0.1C102.8,16.7,102.9,16.7,103,16.7
			C102.9,16.7,103,16.7,103,16.7z M102.8,15.4l0.1,0L102.8,15.4z M102.8,15.1l0.1,0C102.9,15.1,102.9,15.1,102.8,15.1
			C102.8,15.1,102.8,15.1,102.8,15.1z M103,14.3l0,0.1l0.1,0c0-0.1,0-0.1,0-0.1C103.1,14.3,103.1,14.3,103,14.3z M103.2,15.5
			c0,0,0-0.1-0.1-0.1c0,0,0,0-0.1,0l0,0.1L103.2,15.5z M103.3,15.9l0-0.1c-0.1,0-0.1,0-0.1,0c0,0,0,0,0,0.1L103.3,15.9z M103.3,14.9
			l0-0.1l0-0.1l-0.2,0c0,0.1,0,0.1,0,0.1c0,0,0.1,0,0.1,0c-0.1,0-0.1,0-0.1,0C103.2,14.8,103.3,14.8,103.3,14.9
			C103.3,14.9,103.3,14.9,103.3,14.9c0,0,0.1,0,0.1,0L103.3,14.9z M103.3,14.2l0.2,0l0-0.1L103.3,14.2z M103.5,13.2
			c-0.1,0-0.1,0-0.1,0c0,0,0,0,0,0l0.1,0L103.5,13.2z M103.9,15.8c0-0.1-0.1-0.1-0.1-0.1c0,0-0.1,0-0.1,0l-0.2,0l0.2,0
			c0.1,0.1,0.1,0.1,0.1,0.1C103.8,15.8,103.8,15.8,103.9,15.8z M103.8,12.5c-0.1,0-0.1,0-0.1,0c0,0,0,0,0,0.1l0.2,0L103.8,12.5z
			 M103.8,16.2c-0.1,0-0.1,0.1,0,0.1c0,0,0.1,0,0.1,0c0-0.1,0-0.1,0-0.2C104,16.2,103.9,16.2,103.8,16.2z M103.9,12.8l0-0.1
			l-0.2,0.1L103.9,12.8z M103.8,13.3l0.1,0L103.8,13.3z M104.1,12.1c0,0-0.1,0-0.1,0c0,0,0,0,0,0.1c0,0,0,0,0,0c0,0,0,0,0,0
			c0,0,0,0,0.1,0L104.1,12.1z M105.2,13.8l0-0.1c0-0.2-0.1-0.4-0.1-0.6c0-0.2,0-0.4,0-0.6l-0.1,0l-0.1,0l-0.2,0.8
			c-0.1,0.2-0.3,0.5-0.4,0.8c-0.1,0.3-0.3,0.5-0.4,0.8c0,0.1,0,0.2,0,0.3c0,0.1,0.1,0.2,0.2,0.3c0,0.1,0.1,0.2,0.2,0.3
			c0.1,0,0.2,0,0.3,0c0.1,0,0.3-0.1,0.4-0.1c0.1-0.1,0.2-0.1,0.2-0.3c-0.1-0.1-0.1-0.3-0.1-0.4c0-0.1,0-0.2,0-0.3
			c0-0.1-0.1-0.2,0-0.4C105.2,14,105.2,13.9,105.2,13.8z M104,12.4l0-0.1C104,12.4,104,12.4,104,12.4c0,0,0.1,0,0.1,0L104,12.4z
			 M104,13l0.2,0L104,13z M104.1,12l0-0.1L104.1,12z M104.2,16.5c0,0,0-0.1,0-0.2c0-0.1,0-0.1-0.1-0.1c0,0.1,0,0.1,0,0.1
			c0,0,0,0,0.1,0L104.2,16.5z M104.3,11.6c-0.1,0-0.1,0-0.1,0c0,0,0,0,0,0l0-0.1L104.3,11.6z M104.2,12.1l0,0.1c0.1,0,0.1,0,0.2,0
			c0,0,0,0,0-0.1L104.2,12.1z M104.6,11l0.1,0l-0.1-0.1L104.6,11z M104.7,15.9l0.1,0L104.7,15.9z M104.8,11.4l0.2,0l0-0.1l0,0.1
			L104.8,11.4z M105.2,16.4l0,0.1l-0.1,0l0,0.1l0-0.1l0.1,0L105.2,16.4z M105.1,11C105.1,11.1,105.1,11.1,105.1,11
			c0,0.1,0.1,0.1,0.1,0.1l0-0.1L105.1,11z M105.1,10.1l0-0.1L105.1,10.1z M105.3,10C105.3,10,105.3,9.9,105.3,10
			c0-0.1-0.1-0.1-0.1-0.2l0,0.1L105.3,10z M105.2,9.4l0,0.2c0.1,0,0.1,0,0.2,0c0,0,0,0,0-0.1C105.4,9.5,105.4,9.4,105.2,9.4
			C105.3,9.4,105.3,9.4,105.2,9.4z M105.6,12l-0.1,0c-0.1,0-0.2,0-0.2-0.1c0,0,0,0,0,0l0.2,0L105.6,12z M105.5,15.7
			c-0.1,0.1-0.1,0.1-0.1,0c0,0,0,0,0,0.1l0-0.1L105.5,15.7z M105.6,15.9l-0.2,0C105.5,15.9,105.5,15.9,105.6,15.9
			C105.6,15.9,105.6,15.9,105.6,15.9L105.6,15.9z M105.6,10.7l0-0.2l-0.1,0c0.1,0,0.1,0,0.1,0.1C105.6,10.6,105.6,10.6,105.6,10.7z
			 M106,15.9C106,16,106,16,106,15.9c-0.1,0.1-0.1,0.1-0.1,0.1c0,0,0-0.1-0.1-0.1c-0.1,0-0.1,0-0.2,0l-0.1,0.1l0.1-0.1
			c0.1,0,0.1,0,0.1,0.1c0,0,0.1,0.1,0.1,0.1l0,0.1l0-0.1l0-0.1C105.9,16,105.9,16,106,15.9C106,16,106,16,106,15.9z M105.6,12.3
			l0,0.2c0,0,0-0.1,0.1-0.1c0,0,0,0,0.1,0l0-0.1L105.6,12.3z M105.5,16.9l0-0.1L105.5,16.9z M105.7,9.4c0,0,0,0,0-0.1l-0.1,0l0,0.1
			C105.6,9.4,105.6,9.4,105.7,9.4z M105.6,17.6l0.1,0c0-0.1,0-0.1,0-0.1C105.7,17.6,105.6,17.6,105.6,17.6z M105.8,9.8l0.2,0
			L105.8,9.8C105.8,9.8,105.8,9.7,105.8,9.8c0-0.1-0.1-0.1-0.1-0.1l0,0.1C105.6,9.9,105.7,9.9,105.8,9.8
			C105.7,9.9,105.8,9.8,105.8,9.8z M105.6,12.8l0.2,0L105.6,12.8z M105.6,15.7l0-0.1L105.6,15.7l0-0.1L105.6,15.7z M105.9,11.3
			l-0.1,0c0-0.1,0-0.1,0-0.1c0,0-0.1,0-0.1,0.1L105.9,11.3z M105.7,14l0,0.1c0.1,0,0.1,0,0.1,0c0,0,0,0,0-0.1L105.7,14z M105.8,9.6
			l0-0.1L105.8,9.6l-0.1,0L105.8,9.6z M105.7,14.6l0.2,0l-0.1,0.1l0.1-0.1L105.7,14.6z M105.8,13.7
			C105.7,13.7,105.7,13.7,105.8,13.7L105.8,13.7l0.1,0.1C105.8,13.8,105.8,13.8,105.8,13.7z M105.7,13l0.1,0c0-0.1,0-0.1,0-0.1
			c0,0-0.1,0-0.1,0L105.7,13z M105.8,14.9l-0.1,0.1L105.8,14.9l0.1,0L105.8,14.9z M105.8,17.1l0.2,0c0,0,0,0,0-0.1
			c0-0.1-0.1-0.1-0.1-0.1L105.8,17.1z M106,10.9c-0.1,0-0.1,0-0.1,0c0,0,0,0.1-0.1,0.2c0.1,0,0.1,0,0.1-0.1
			C106,11,106,10.9,106,10.9z M105.9,12.1C105.9,12.1,105.9,12.1,105.9,12.1c0,0.1,0.1,0.1,0.1,0L105.9,12.1z M106,12.2l0,0.1
			c-0.1,0-0.1,0-0.1,0.1c0,0.1,0,0.1,0,0.2l0-0.1l0-0.1L106,12.2z M106.1,12.8l0,0.1C106.1,12.8,106.1,12.8,106.1,12.8
			c0,0-0.1,0-0.1,0L106.1,12.8z M106,10.1l0,0.3c0.1-0.1,0.1-0.1,0.1-0.2c0,0,0,0,0-0.1L106,10.1z M106,15.5l0.1,0L106,15.5z
			 M106,18.3l0.1,0L106,18.3z M106.2,14.4C106.2,14.4,106.2,14.5,106.2,14.4C106.2,14.5,106.2,14.4,106.2,14.4
			c0-0.1-0.1-0.1-0.1-0.1C106.1,14.3,106.2,14.4,106.2,14.4z M106.1,15.5l0-0.1c0,0,0,0-0.1,0C106.1,15.4,106.1,15.4,106.1,15.5z
			 M106.1,11.9l0,0.1l0.1,0C106.2,12,106.2,12,106.1,11.9C106.2,11.9,106.2,11.9,106.1,11.9z M106.1,14.1l0-0.1L106.1,14.1l0,0.1
			L106.1,14.1z M106.1,11.9l0-0.1L106.1,11.9z M106.3,17.8C106.3,17.8,106.3,17.8,106.3,17.8c0-0.1-0.1-0.1-0.1,0L106.3,17.8z
			 M106.2,18.8l0,0.1l0.1,0L106.2,18.8z M106.2,17.2l0.1,0L106.2,17.2l0-0.1l0-0.1c-0.1,0-0.1,0.1-0.1,0.1c0,0,0,0,0.1,0L106.2,17.2
			z M106.5,18.2l0-0.1c-0.1,0-0.1,0-0.2-0.1c-0.1,0-0.1,0-0.1,0c0.1,0.1,0.1,0.1,0.1,0.1c0,0,0.1,0,0.2,0L106.5,18.2z M106.3,16.1
			l0,0.1L106.3,16.1z"/>
		<path class="st2" d="M108,19.4c0.2-0.4,0.3-0.8,0.4-1.2c0.1-0.4,0.2-0.9,0.4-1.3l0.3-0.9l0.3-0.8l0.3-0.9c0-0.1,0-0.1,0.1-0.2
			c0,0,0.1-0.1,0-0.2l0.1-0.4c0.1-0.2,0.1-0.4,0.1-0.6c0-0.2,0.1-0.5,0.3-0.7c0,0,0.1,0,0.1,0c0,0,0,0,0-0.1l0.2-0.7
			c0-0.2,0-0.4,0.1-0.5c0.1-0.2,0.2-0.3,0.2-0.5c0,0,0,0,0,0c0,0,0.1,0,0.1,0c0,0,0,0,0-0.1c0,0,0.1-0.1,0.2-0.1c0,0,0,0,0-0.1
			c0,0,0.1-0.1,0.1,0c0.1,0,0.2,0,0.3,0.1c0.1,0,0.2,0.1,0.3,0.2c0.1,0.1,0.2,0.1,0.3,0.2c0.1,0.1,0.1,0.2,0.1,0.3l0,0.1
			c0.1,0.1,0.2,0.2,0.2,0.4c0,0.1,0,0.3-0.1,0.4c0,0,0,0.1,0,0.1c0,0,0,0.1,0,0.1c0,0.2,0.1,0.4,0.1,0.6c0,0.2,0,0.4,0,0.7
			c0,0.1,0,0.1,0,0.1c0,0,0,0.1,0.1,0.1c0.1,0.3,0.1,0.6,0.1,0.9c0,0.3,0,0.6,0,0.9c0,0.2,0,0.4,0.1,0.7c0,0.2,0,0.5,0,0.6
			c0.1,0.1,0.1,0.1,0.1,0.2c0,0,0.1,0,0.1,0.1l0-0.1l0.4-1.3l0.4-1.2l0.4-1.3l0.4-1.4c0,0,0-0.1,0.1-0.1c0.1,0,0.1-0.1,0.2-0.1
			c0.1,0,0.2-0.1,0.2-0.1c0.1,0,0.2-0.1,0.2-0.1c0.2,0.1,0.4,0.2,0.5,0.3c0.1,0.1,0.2,0.3,0.2,0.5c0.1,0.1,0.1,0.2,0.1,0.3
			c0,0.1,0,0.2-0.1,0.2l-0.2,0.7l-0.1,0.4c-0.1,0.1-0.2,0.2-0.1,0.3c0,0.1,0,0.2,0,0.3l-0.2,0.8l-0.3,0.9l-0.1,0.4l-0.2,0.6
			l-0.1,0.5l-0.1,0c0,0.2,0,0.4-0.1,0.5c-0.1,0.1-0.1,0.3-0.1,0.5l0,0.1l-0.2,0.7l-0.4,1.2l0,0.1c-0.1,0.1-0.2,0.2-0.2,0.3
			c0,0.1,0,0.2-0.1,0.4l-0.1,0.5c0,0.1-0.1,0.2-0.3,0.3c-0.1,0.1-0.3,0.1-0.4,0c-0.1,0-0.2,0-0.3,0c-0.1,0-0.2-0.1-0.3-0.1
			c-0.1-0.1-0.2-0.2-0.3-0.4c-0.1-0.1-0.1-0.3-0.1-0.4c0-0.1,0-0.2,0-0.3c0-0.1,0-0.2,0-0.2l-0.1-0.2c0.1-0.1,0.1-0.2,0.1-0.3
			c-0.1-0.1-0.1-0.3,0-0.4c-0.2-0.4-0.2-0.9-0.1-1.3l0-0.1c-0.1-0.2-0.2-0.3-0.2-0.5c0-0.1,0-0.3,0-0.5l0-0.1c0-0.1-0.1-0.3-0.1-0.4
			c0-0.1,0-0.3,0-0.4c0-0.2-0.1-0.4-0.1-0.5c0-0.2,0-0.3-0.1-0.5l-0.1,0c-0.2,0.1-0.2,0.2-0.1,0.3c-0.1,0.2-0.1,0.3-0.1,0.5
			c0,0.2-0.1,0.3-0.2,0.5l-0.1,0.5l-0.2,0.7c-0.1,0.1-0.2,0.3-0.2,0.5c0,0.2,0,0.4-0.1,0.5l-0.3,1l-0.1,0.2c0,0.2-0.1,0.3-0.2,0.5
			c-0.2,0.1-0.3,0.2-0.5,0.2c0,0.1-0.1,0.1-0.1,0.1c0,0-0.1,0-0.1,0c-0.1-0.1-0.2-0.1-0.3-0.2c-0.1,0-0.2-0.1-0.2-0.1
			c-0.1,0-0.1-0.1-0.1-0.1c-0.1-0.1-0.1-0.2-0.2-0.3c0-0.1,0-0.2,0-0.3L108,19.4z M109.2,17.6L109.2,17.6l0.1,0.1c0,0,0-0.1,0-0.1
			C109.2,17.6,109.2,17.6,109.2,17.6z M109.4,17.4l-0.1,0l0,0.1C109.2,17.5,109.3,17.5,109.4,17.4C109.3,17.4,109.3,17.4,109.4,17.4
			z M109.3,18.3c0,0.1,0,0.1,0,0.1c0,0,0,0,0.1,0C109.4,18.4,109.4,18.3,109.3,18.3c0,0.1,0,0.1,0,0.1L109.3,18.3z M109.6,17.3
			l0.1-0.2l-0.2-0.1c-0.1,0-0.1,0.1-0.1,0.1c0,0,0,0,0,0C109.5,17.2,109.5,17.2,109.6,17.3C109.6,17.3,109.6,17.3,109.6,17.3
			l-0.2-0.1L109.6,17.3z M109.7,18l-0.2,0L109.7,18z M109.8,15.9C109.9,15.9,109.9,15.9,109.8,15.9c0.1-0.1,0.1-0.1,0-0.1
			L109.8,15.9z M109.9,16.3l0.1,0.2L109.9,16.3z M110.2,15.1l0.1-0.1L110.2,15.1z M110.6,14.5l-0.1,0c0,0,0-0.1-0.1-0.1
			c0,0,0,0-0.1,0l0,0.1l0,0.1l0-0.1l0.2,0.1L110.6,14.5l-0.1,0.1L110.6,14.5z M110.4,13.2c0.1,0,0.1,0.1,0.1,0.1c0,0,0,0,0,0.1
			l0-0.1L110.4,13.2z M110.8,12.4l-0.2-0.1l0.1,0.2L110.8,12.4z M110.6,14.9l0-0.1L110.6,14.9z M110.9,14.2l0,0.1c0,0-0.1,0-0.1,0
			c-0.1,0-0.1,0-0.1,0.1l0.2,0c0,0,0,0,0-0.1c0,0,0.1,0,0.1,0l0-0.1L110.9,14.2z M110.6,13.2l0.2,0L110.6,13.2z M110.8,13.8l-0.1,0
			L110.8,13.8z M110.8,12.3c0-0.1,0-0.1,0-0.1c0,0-0.1,0-0.1-0.1l0.2,0.1L110.8,12.3z M111,12.6L111,12.6L111,12.6l-0.2-0.1
			L111,12.6z M111,13.2l0,0.1L111,13.2z M111.1,13L111.1,13l-0.1-0.1c0,0,0,0.1,0,0.1C111,12.9,111,13,111.1,13z M111.2,12.1
			C111.1,12.1,111.1,12.1,111.2,12.1c-0.1,0.1-0.1,0.1,0,0.1c0,0.1-0.1,0.1-0.1,0.1c0,0,0,0,0.1,0c0,0,0,0.1,0,0.1c0,0,0,0,0.1,0
			l-0.1,0.1l0.1-0.1c0,0,0,0,0,0c0,0,0-0.1-0.1-0.1l0-0.1L111.2,12.1z M111.2,11C111.2,11,111.2,10.9,111.2,11c0-0.1,0-0.1-0.1-0.1
			c0,0,0,0,0.1,0C111.2,10.9,111.2,11,111.2,11z M111.1,11.4C111.1,11.4,111.1,11.4,111.1,11.4c0.1,0,0.1,0,0.2-0.1l-0.1,0
			L111.1,11.4z M111.6,14.4l-0.1,0.1c-0.1-0.1-0.1-0.1-0.1-0.1c0,0-0.1,0-0.1-0.1c0,0-0.1,0-0.1,0c-0.1,0-0.1,0-0.1,0.1l0.2,0l0.1,0
			l0.2,0.1L111.6,14.4z M111.5,12l-0.1-0.1l0,0.1L111.5,12z M111.7,13.4c0.1,0,0.1,0,0.1,0c0,0,0,0,0-0.1
			C111.8,13.4,111.8,13.4,111.7,13.4C111.7,13.4,111.7,13.4,111.7,13.4l0-0.1c0,0,0,0-0.1-0.1c0,0-0.1,0-0.1,0L111.7,13.4l0.1,0.2
			l-0.3-0.1l0.3,0.1L111.7,13.4z M111.5,12.4l0.2,0.1l0.2,0c0,0,0-0.1-0.1-0.1c0,0,0,0-0.1,0l-0.2-0.1l0.2,0.1l0,0.1L111.5,12.4z
			 M111.8,13l-0.3-0.1c0,0.1,0,0.1,0.1,0.1c0.1,0,0.1,0,0.1,0.1L111.8,13z M111.8,12.1l-0.2,0l0.1,0.2L111.8,12.1z M111.8,11
			l-0.2-0.1L111.8,11l0,0.1L111.8,11z M111.9,12.6l-0.2,0.1L111.9,12.6z M111.8,17.1l0.1,0c0.1,0,0.1,0,0.2,0c0,0,0,0,0-0.1
			c0.1,0,0.1,0,0.1,0c0,0,0,0,0-0.1l-0.1,0c0,0,0,0,0,0.1c0,0-0.1,0-0.2,0l0,0.1L111.8,17.1C111.8,17.1,111.9,17.1,111.8,17.1
			c0.1-0.1,0.1-0.1,0-0.1L111.8,17.1z M112,14L112,14c0,0.1,0,0.1,0,0.2c0,0,0.1,0,0.1,0L112,14C112,14.1,111.9,14.1,112,14
			c-0.1,0-0.1,0-0.2,0L112,14z M112,12.9l-0.2-0.1c0,0,0,0,0.1,0C112,13,112,13,112,12.9L112,12.9z M111.9,15.4c0,0,0,0.1,0,0.1
			c0,0,0,0,0.1,0l0-0.1L111.9,15.4z M111.9,18.3l0.2,0.1l-0.1-0.2L111.9,18.3z M112,13.4l0.2,0.1L112,13.4l0,0.1c0.1,0,0.1,0,0.1,0
			c0,0,0,0,0-0.1L112,13.4z M112.2,14.5l-0.2,0l0.1,0.2L112.2,14.5z M112.1,16.7l0,0.1L112.1,16.7l0.2,0L112.1,16.7z M112.1,19.4
			l0.1,0L112.1,19.4z M112.2,15.5l0-0.1c-0.1,0-0.1,0-0.1,0C112.2,15.4,112.2,15.4,112.2,15.5l0,0.1c0.1,0,0.1,0,0.2,0
			c0,0,0,0,0-0.1L112.2,15.5z M112.2,15.9l0,0.1L112.2,15.9C112.3,15.9,112.3,15.9,112.2,15.9c0.1,0.1,0.1,0.1,0.1,0L112.2,15.9z
			 M112.4,16.4l-0.2,0L112.4,16.4C112.3,16.4,112.3,16.5,112.4,16.4c-0.1,0.1-0.1,0.1,0,0.1L112.4,16.4z M112.4,18.9
			C112.4,18.9,112.4,19,112.4,18.9c0.1,0,0.2,0,0.2-0.1c0,0,0,0.1,0,0.2c0,0,0,0.1,0,0.1c0.1,0,0.1,0,0.1,0c0,0,0-0.1,0-0.1
			l-0.1-0.1c0-0.1,0-0.1,0-0.1C112.5,18.8,112.5,18.8,112.4,18.9L112.4,18.9l-0.1,0L112.4,18.9z M112.3,20.1l0,0.1l0.1,0l0-0.1
			L112.3,20.1z M112.3,18.6L112.3,18.6L112.3,18.6z M112.4,19.7l0.1,0l0-0.1C112.5,19.6,112.5,19.6,112.4,19.7
			C112.4,19.7,112.4,19.7,112.4,19.7z M112.7,20.8l-0.2-0.1c-0.1,0-0.1,0.1-0.1,0.1c0,0,0.1,0,0.2,0.1c0,0,0,0.1-0.1,0.1
			c0,0,0,0,0.1,0l0-0.1L112.7,20.8z M112.7,18.7l0-0.1c-0.1,0-0.1,0-0.1,0c0,0,0,0,0,0.1L112.7,18.7z M112.9,17.9l0,0.1l0.1,0l0-0.1
			c0,0,0.1,0,0.1,0c0,0,0-0.1,0-0.1l0,0.1L112.9,17.9l-0.1,0L112.9,17.9z M112.9,19.7l-0.1,0l0,0.1
			C112.8,19.9,112.8,19.8,112.9,19.7C112.9,19.8,112.9,19.8,112.9,19.7z M112.9,20.8l-0.1,0L112.9,20.8z M112.8,20.1l0.2,0l0-0.1
			l0,0.1L112.8,20.1z M112.9,18.3l0.1,0L112.9,18.3z M112.9,19.6l0.2,0.1l0-0.1l-0.2,0L112.9,19.6z M113,17.3l0,0.1l0.1,0
			c0,0,0,0,0-0.1C113.1,17.3,113.1,17.3,113,17.3z M113.3,19.9L113.3,19.9c0-0.1-0.1-0.1-0.1-0.1c0,0,0,0,0,0.1L113.3,19.9z
			 M113.2,18.7C113.2,18.7,113.2,18.8,113.2,18.7c0,0.1,0,0.2,0.1,0.2l0-0.1L113.2,18.7z M113.2,17.1c0,0.1,0,0.1,0,0.1
			c0,0,0,0,0.1,0.1C113.4,17.2,113.4,17.2,113.2,17.1C113.3,17.1,113.3,17.1,113.2,17.1C113.3,17,113.3,17,113.2,17.1
			c0.1,0,0.2,0,0.2-0.1C113.4,17,113.3,17,113.2,17.1C113.3,17,113.3,17.1,113.2,17.1z M113.6,19.1L113.6,19.1
			c0-0.1-0.1-0.1-0.1-0.1c0,0,0,0,0,0.1L113.6,19.1z M113.5,16.8C113.5,16.8,113.5,16.8,113.5,16.8c0,0.1,0.1,0.1,0.2,0
			c0,0,0,0.1,0,0.1c0,0,0,0.1,0.1,0.1l0.2,0l-0.2,0c0,0-0.1,0-0.1-0.1c0,0,0,0,0-0.1L113.5,16.8z M113.6,18.5l0.1,0L113.6,18.5z
			 M113.8,16.4l0-0.1C113.8,16.3,113.8,16.3,113.8,16.4c0,0-0.1,0-0.2,0L113.8,16.4z M114,16.2c0,0,0-0.1,0-0.1c0-0.1,0-0.1-0.1,0
			l-0.2,0C113.8,16,113.8,16.1,114,16.2C113.9,16.2,114,16.2,114,16.2l0,0.1L114,16.2z M113.9,17.4l0-0.1L113.9,17.4z M114.1,15.7
			c0,0,0-0.1,0.1-0.1c0,0,0.1,0,0.1,0l0.1-0.2l0.1,0.2c0.1,0,0.1,0,0.1,0c0,0,0-0.1-0.1-0.1l-0.1-0.2l0,0.1l-0.2,0l0,0.1
			c0,0,0,0,0,0.1c0,0,0.1,0.1,0.1,0.1L114.1,15.7z M114.5,15.1c-0.1-0.1-0.1-0.1-0.2-0.1c-0.1,0-0.1,0.1-0.1,0.1l0.1,0L114.5,15.1z
			 M114.5,16.1l-0.1,0L114.5,16.1z M114.4,14.9l0.2,0L114.4,14.9L114.4,14.9c0.1-0.1,0.2-0.1,0.2-0.1c0,0,0,0,0-0.1
			c-0.1,0-0.1,0-0.2,0C114.4,14.8,114.4,14.8,114.4,14.9L114.4,14.9z M114.4,14.4l0.1,0L114.4,14.4z M114.5,14.2l0,0.1L114.5,14.2z
			 M114.7,14.4l0,0.1l0.1,0L114.7,14.4z M114.8,13.6L114.8,13.6L114.8,13.6l0,0.1l0.2,0l0.1,0l-0.1,0l-0.2,0L114.8,13.6z M115,13.6
			c0,0,0,0.1,0,0.1c0,0,0,0,0.1,0l0-0.1l0,0.1L115,13.6L115,13.6z M115,12.6l0.1,0l0-0.1l0,0.1L115,12.6z M115,13l0-0.1L115,13z
			 M115.1,13.3l0,0.1l0.1,0C115.2,13.5,115.2,13.4,115.1,13.3C115.1,13.4,115.1,13.4,115.1,13.3l0.1,0L115.1,13.3z M115.1,12.1
			l0.1,0c0-0.1,0.1-0.1,0.1-0.1c0,0,0,0-0.1,0l0,0.1L115.1,12.1z M115.5,12.9c-0.1,0-0.1,0-0.1,0c0,0,0,0,0,0.1l0-0.1L115.5,12.9z
			 M115.6,12.5l-0.1,0l0.2-0.1L115.6,12.5z"/>
		<path class="st2" d="M121.1,16L121.1,16c0,0.3,0,0.5-0.1,0.6c0,0.1-0.1,0.3-0.1,0.5l-0.2,0.5c-0.1,0.4-0.1,0.7-0.2,1
			c-0.1,0.3-0.1,0.6-0.1,0.9c-0.1,0.4-0.1,0.8-0.2,1.2c0,0.4-0.1,0.8-0.2,1.2c-0.1,0.2-0.1,0.3-0.1,0.5c0,0.2,0,0.3,0,0.5l0,0.1
			c0,0,0,0.1-0.1,0.2c0,0.1,0,0.2,0,0.3c0,0.2-0.1,0.3-0.2,0.5c-0.1,0.1-0.2,0.2-0.3,0.3c-0.1,0-0.2,0-0.3,0.1c-0.1,0-0.2,0-0.2,0
			c-0.3-0.1-0.5-0.3-0.7-0.5c-0.2-0.2-0.2-0.4-0.2-0.7c0.1-0.2,0.1-0.3,0.2-0.5c0.1-0.2,0.1-0.4,0.1-0.6c0-0.3-0.1-0.5-0.3-0.6
			c-0.1-0.1-0.4-0.3-0.6-0.4c-0.2-0.1-0.4-0.1-0.6-0.1c-0.2,0-0.4,0-0.6,0.2l0,0.1c0,0.1,0,0.1-0.1,0.1c0,0-0.1,0-0.1,0.1
			c-0.1,0-0.2,0.1-0.2,0.2c0,0.1,0,0.2-0.1,0.3c0,0.1-0.1,0.1-0.2,0.1c-0.1,0-0.1,0.1-0.1,0.1c-0.1,0.1-0.2,0.2-0.3,0.2
			c-0.1,0-0.3,0-0.4,0c-0.1,0-0.3,0-0.4-0.1c-0.1-0.1-0.2-0.1-0.3-0.2c0-0.1-0.1-0.2-0.1-0.2c0-0.1,0-0.1,0-0.2
			c0.1-0.2,0.1-0.3,0.2-0.5c0.1-0.2,0.2-0.3,0.3-0.5c0-0.1,0.1-0.2,0.2-0.3c0.1-0.1,0.2-0.2,0.2-0.4c0.1-0.1,0.2-0.2,0.3-0.4
			c0.1-0.1,0.2-0.3,0.3-0.4c0.1-0.1,0.2-0.2,0.2-0.3c0.1-0.1,0.1-0.3,0.2-0.4c0.1-0.1,0.1-0.3,0.2-0.4c0.1-0.1,0.2-0.2,0.3-0.3
			c0.1-0.1,0.3-0.3,0.4-0.5c0.1-0.2,0.3-0.3,0.3-0.5l0.1-0.2c0.2-0.2,0.3-0.4,0.5-0.6c0.2-0.2,0.3-0.4,0.5-0.6
			c0-0.1,0.1-0.1,0.1-0.2c0-0.1,0.1-0.1,0.2-0.2l0.1-0.3c0-0.1,0.1-0.2,0.2-0.4c0.1-0.1,0.2-0.3,0.3-0.3c0.1,0,0.1,0,0.1,0
			c0,0,0,0,0,0c0-0.2,0.1-0.3,0.3-0.4c0.2-0.1,0.4-0.1,0.6-0.1c0.1,0,0.2,0,0.2,0c0.1,0,0.1,0.1,0,0.1c0.2,0.1,0.3,0.1,0.4,0.2
			c0.1,0,0.1,0.1,0.2,0.2c0.1,0,0.1,0.1,0.1,0.1c0,0.1,0,0.1,0.1,0.2c-0.1,0.2-0.1,0.3-0.1,0.5c0,0.1-0.1,0.3-0.1,0.5
			c0,0,0,0.1-0.1,0.2c0,0.1,0,0.2,0,0.3c0,0.1,0.1,0.2,0.1,0.2C121.2,15.8,121.1,15.9,121.1,16z M114.9,21.4
			C114.8,21.4,114.8,21.4,114.9,21.4c-0.1,0-0.1,0-0.1,0.1L114.9,21.4z M115.3,21.5C115.3,21.5,115.3,21.6,115.3,21.5l0.1,0.1
			C115.4,21.6,115.3,21.5,115.3,21.5z M115.5,20.2C115.5,20.2,115.5,20.3,115.5,20.2c-0.1,0.1-0.1,0.1-0.2,0L115.5,20.2L115.5,20.2z
			 M115.9,20.2C115.8,20.2,115.8,20.2,115.9,20.2c-0.1-0.1-0.1-0.1-0.1-0.2l-0.1,0.1l-0.1-0.1c0,0,0,0.1,0.1,0.1c0,0,0.1,0,0.1,0
			L115.9,20.2z M116.4,20.5c0.1,0,0.1,0,0.1,0c0,0,0,0,0.1-0.1l-0.1-0.1L116.4,20.5c0-0.1,0-0.1,0.1-0.2c0-0.1,0-0.1-0.1-0.1
			c-0.1,0-0.1,0-0.1,0c0,0,0,0.1,0,0.1l-0.1-0.1l-0.1-0.1l0,0.1c0.1,0,0.1,0,0.1,0c0,0,0,0,0.1-0.1c0,0,0,0.1,0,0.1c0,0,0,0,0.1,0
			l0,0.1C116.3,20.6,116.3,20.6,116.4,20.5C116.4,20.6,116.4,20.6,116.4,20.5z M116.4,19.2l0.1,0.1L116.4,19.2z M116.5,19l0.1,0.1
			C116.6,19,116.6,19,116.5,19C116.5,19,116.5,19,116.5,19z M116.9,19.4c0,0,0-0.1-0.1-0.1c0,0,0,0-0.1,0l0,0.1L116.9,19.4z
			 M116.8,19.8l0.1-0.1c-0.1,0-0.1,0-0.1,0c0,0,0,0-0.1,0.1L116.8,19.8z M116.9,18.2l0,0.1l0.1,0.1c0-0.1,0-0.1,0-0.1
			C117,18.3,116.9,18.3,116.9,18.2z M117.1,18.9l0-0.1l0-0.1l-0.2-0.1c0,0.1,0,0.1,0,0.1c0,0,0.1,0,0.1,0.1c-0.1,0-0.1,0-0.1,0
			C117,18.8,117,18.8,117.1,18.9C117.1,18.9,117.1,18.9,117.1,18.9c0,0,0.1,0,0.1,0.1L117.1,18.9z M117.4,19.9
			c0-0.1-0.1-0.1-0.1-0.1c0,0-0.1,0-0.1-0.1l-0.2-0.1l0.2,0.1c0,0.1,0.1,0.1,0.1,0.2C117.4,19.9,117.4,19.9,117.4,19.9z M117.2,18.2
			l0.2,0.1l0.1-0.1L117.2,18.2z M117.3,20.2c-0.1,0-0.1,0.1,0,0.1c0,0,0.1,0,0.1,0.1c0-0.1,0-0.1,0-0.2
			C117.5,20.2,117.4,20.2,117.3,20.2z M117.6,17.2c-0.1,0-0.1,0-0.1,0c0,0,0,0,0,0L117.6,17.2L117.6,17.2z M117.6,20.6
			c0,0,0-0.1,0-0.2c0-0.1,0-0.1-0.1-0.1c0,0.1,0,0.1,0,0.1C117.6,20.5,117.7,20.5,117.6,20.6L117.6,20.6z M119.2,18.2l0.1-0.1
			c0-0.2,0-0.4,0-0.6c0-0.2,0.1-0.4,0.1-0.6l-0.1-0.1l-0.1-0.1l-0.3,0.8c-0.2,0.2-0.3,0.4-0.5,0.7c-0.2,0.2-0.4,0.5-0.5,0.7
			c0,0.1-0.1,0.2-0.1,0.3c0,0.1,0,0.2,0.2,0.3c0,0.1,0.1,0.2,0.2,0.3c0.1,0.1,0.2,0.1,0.3,0c0.1,0,0.3,0,0.4-0.1
			c0.1,0,0.2-0.1,0.2-0.2c0-0.1,0-0.3,0-0.4c0-0.1,0.1-0.2,0.1-0.3c0-0.1,0-0.2,0-0.4C119.1,18.4,119.1,18.3,119.2,18.2z M118,16.6
			c-0.1,0-0.1,0-0.1,0c0,0,0,0-0.1,0.1l0.2,0.1L118,16.6z M117.9,17.4l0.1,0.1L117.9,17.4z M118.1,16.9l0.1-0.1l-0.2,0.1L118.1,16.9
			z M118.1,17.2l0.2,0.1L118.1,17.2z M118.3,16.2c0,0-0.1,0-0.1,0c0,0,0,0,0,0c0,0,0,0,0,0c0,0,0,0,0,0c0,0,0,0,0.1,0L118.3,16.2z
			 M118.2,16.6l0-0.1C118.2,16.5,118.2,16.6,118.2,16.6c0,0,0.1,0,0.1,0.1L118.2,16.6z M118.2,20.1l0.1,0.1L118.2,20.1z M118.4,16.1
			l0.1-0.1L118.4,16.1z M118.6,20.7l0,0.1l-0.1-0.1l-0.1,0.1l0.1-0.1l0.1,0.1L118.6,20.7z M118.5,16.3l0,0.1c0.1,0,0.1,0,0.2,0
			c0,0,0,0,0,0L118.5,16.3z M118.6,15.9c-0.1,0-0.1,0-0.1,0c0,0,0,0,0,0l0-0.1L118.6,15.9z M118.8,21.9l0.1,0.1c0-0.1,0-0.1,0-0.1
			C118.9,21.9,118.8,21.9,118.8,21.9z M119,20.1c-0.1,0-0.1,0-0.1,0c0,0,0,0,0,0.1l0.1-0.1L119,20.1z M118.9,21.3l0-0.1L118.9,21.3z
			 M119.2,20.3l-0.2-0.1C119,20.3,119.1,20.3,119.2,20.3C119.1,20.3,119.1,20.3,119.2,20.3L119.2,20.3z M119.6,20.4
			C119.5,20.5,119.5,20.5,119.6,20.4c-0.1,0.1-0.1,0.1-0.2,0c0,0,0-0.1-0.1-0.1c-0.1,0-0.1,0-0.2,0l-0.1,0.1l0.1-0.1
			c0.1,0,0.1,0.1,0.1,0.1c0,0,0,0.1,0.1,0.1l0,0.1l0-0.1l0-0.1c0,0,0,0,0.1,0C119.5,20.5,119.5,20.5,119.6,20.4z M119.1,21.5
			l0.2,0.1c0,0,0,0,0-0.1c0-0.1-0.1-0.1-0.1-0.1L119.1,21.5z M119.1,15.3l0.1,0.1L119.1,15.3L119.1,15.3z M119.1,22.7l0.1,0.1
			L119.1,22.7z M119.2,23.3l-0.1,0.1l0.1,0.1L119.2,23.3z M119.2,20.1l0-0.1L119.2,20.1l0-0.1L119.2,20.1z M119.2,15.7l0.2,0.1
			l0-0.1l0,0.1L119.2,15.7z M119.4,22.3C119.4,22.3,119.4,22.3,119.4,22.3c0-0.1-0.1-0.1-0.1-0.1L119.4,22.3z M119.6,22.8l0-0.1
			c-0.1,0-0.1-0.1-0.2-0.1c0-0.1-0.1-0.1-0.1,0c0,0.1,0.1,0.1,0.1,0.1c0,0,0.1,0,0.2,0L119.6,22.8z M119.5,19.3L119.5,19.3
			L119.5,19.3l0.1,0.1L119.5,19.3z M119.5,19l0.2,0.1l-0.1,0.1l0.1-0.1L119.5,19z M119.5,15.4C119.5,15.4,119.5,15.5,119.5,15.4
			c0,0.1,0,0.1,0.1,0.2l0-0.1L119.5,15.4z M119.6,18.5l0,0.1c0.1,0,0.1,0,0.1,0c0,0,0,0,0.1-0.1L119.6,18.5z M119.5,21.7l0.1,0.1
			L119.5,21.7l0.1-0.1l0-0.1c-0.1,0-0.1,0-0.1,0.1c0,0,0,0,0,0L119.5,21.7z M119.9,16.5l-0.1-0.1c-0.1,0-0.1-0.1-0.1-0.1
			c0,0,0,0,0,0l0.2,0.1L119.9,16.5z M119.6,20l0.1,0.1L119.6,20z M119.7,18.2C119.7,18.2,119.7,18.1,119.7,18.2L119.7,18.2
			L119.7,18.2C119.7,18.3,119.7,18.2,119.7,18.2z M119.8,16.7l-0.1,0.2c0,0,0-0.1,0.1-0.1c0,0,0,0,0.1,0l0.1-0.1L119.8,16.7z
			 M119.7,20l0-0.1c0,0,0,0-0.1,0C119.7,19.8,119.7,19.9,119.7,20z M119.7,14.5L119.7,14.5L119.7,14.5z M119.7,17.2l0.2,0.1
			L119.7,17.2z M119.8,20.6l0,0.1L119.8,20.6z M119.9,14.4C119.9,14.4,119.9,14.4,119.9,14.4c0-0.1,0-0.1-0.1-0.2l0,0.1L119.9,14.4z
			 M119.8,17.5l0.1,0.1c0-0.1,0-0.1,0-0.1c0,0,0,0-0.1-0.1L119.8,17.5z M120,19C120,19,120,19,120,19C120,19,120,19,120,19
			c0-0.1,0-0.1-0.1-0.1C119.9,18.9,120,18.9,120,19z M120,13.8l-0.1,0.2c0.1,0,0.1,0,0.2,0c0,0,0,0,0,0
			C120.1,13.9,120.1,13.9,120,13.8C120,13.8,120,13.8,120,13.8z M120,18.6l0-0.1L120,18.6l0,0.1L120,18.6z M120.3,15.9l-0.1-0.1
			c0-0.1,0-0.1,0-0.1c0,0-0.1,0-0.1,0L120.3,15.9z M120.1,15.1l0.1-0.2l-0.1-0.1c0.1,0,0.1,0.1,0.1,0.1
			C120.1,15,120.1,15.1,120.1,15.1z M120.2,17.3l0,0.1C120.2,17.4,120.2,17.4,120.2,17.3c0,0-0.1,0-0.1,0L120.2,17.3z M120.3,16.8
			l-0.1,0.1c-0.1,0-0.1,0-0.1,0c0,0.1,0,0.1,0,0.2l0-0.1l0-0.1L120.3,16.8z M120.2,16.6C120.2,16.6,120.2,16.7,120.2,16.6
			c0,0.1,0.1,0.1,0.1,0.1L120.2,16.6z M120.5,15.4c-0.1,0-0.1,0-0.1,0c0,0-0.1,0.1-0.1,0.2c0.1,0,0.1,0,0.1,0
			C120.4,15.5,120.4,15.5,120.5,15.4z M120.4,14.4l0.2,0.1L120.4,14.4C120.4,14.3,120.4,14.3,120.4,14.4c0-0.1,0-0.1-0.1-0.2l0,0.1
			C120.3,14.4,120.3,14.4,120.4,14.4C120.4,14.4,120.4,14.4,120.4,14.4z M120.4,14c0,0,0,0,0.1-0.1l-0.1-0.1l-0.1,0.1
			C120.3,14,120.4,14,120.4,14z M120.4,16.4l-0.1,0.1l0.1,0c0,0,0,0,0-0.1C120.5,16.5,120.4,16.5,120.4,16.4z M120.5,14.1l0.1-0.1
			L120.5,14.1l-0.1-0.1L120.5,14.1z M120.4,16.4l0-0.1L120.4,16.4z M120.6,14.7l-0.1,0.2c0.1,0,0.1-0.1,0.2-0.1c0,0,0,0,0-0.1
			L120.6,14.7z"/>
		<path class="st2" d="M120.8,24.1c0.3-0.3,0.5-0.7,0.6-1.1c0.2-0.4,0.4-0.8,0.6-1.2l0.5-0.9l0.4-0.7l0.5-0.9c0-0.1,0.1-0.1,0.1-0.1
			c0.1,0,0.1-0.1,0-0.2l0.2-0.3c0.1-0.2,0.2-0.3,0.2-0.6c0.1-0.2,0.2-0.4,0.4-0.6c0,0,0.1,0,0.1,0c0,0,0,0,0-0.1l0.4-0.7
			c0-0.2,0.1-0.4,0.2-0.5c0.1-0.1,0.2-0.3,0.3-0.5c0,0,0,0,0,0c0,0,0.1,0,0.1,0c0,0,0,0,0.1-0.1c0,0,0.1-0.1,0.2-0.1c0,0,0,0,0,0
			c0,0,0.1,0,0.1,0c0.1,0,0.2,0,0.3,0.1c0.1,0.1,0.2,0.1,0.3,0.2c0.1,0.1,0.2,0.2,0.2,0.3c0.1,0.1,0.1,0.2,0.1,0.3l0,0.1
			c0.1,0.1,0.1,0.3,0.1,0.4c0,0.1-0.1,0.3-0.2,0.4c0,0,0,0.1,0,0.1c0,0,0,0.1,0,0.1c0,0.2,0,0.4-0.1,0.6c0,0.2-0.1,0.4-0.1,0.7
			c0,0.1,0,0.1,0,0.1c0,0,0,0.1,0.1,0.2c0,0.3,0,0.7-0.1,0.9c-0.1,0.3-0.1,0.6-0.2,0.9c0,0.2-0.1,0.4,0,0.7c0,0.2,0,0.5-0.1,0.6
			c0,0.1,0.1,0.2,0.1,0.2c0,0,0.1,0,0.1,0.1l0.1-0.1l0.6-1.2l0.6-1.1l0.6-1.2l0.7-1.3c0,0,0.1,0,0.1-0.1c0.1,0,0.1,0,0.2-0.1
			c0.1,0,0.2,0,0.3-0.1c0.1,0,0.2,0,0.2,0c0.2,0.1,0.3,0.2,0.5,0.3c0.1,0.1,0.1,0.3,0.1,0.5c0,0.1,0,0.2,0,0.3
			c0,0.1-0.1,0.2-0.1,0.2l-0.3,0.6l-0.2,0.3c-0.1,0.1-0.2,0.2-0.2,0.2c0,0.1,0,0.2-0.1,0.3l-0.4,0.7l-0.5,0.9l-0.2,0.3l-0.3,0.5
			l-0.2,0.4l-0.1-0.1c0,0.2-0.1,0.4-0.2,0.5c-0.1,0.1-0.1,0.3-0.2,0.5l0,0.1l-0.3,0.6l-0.6,1.1l-0.1,0.1c-0.1,0.1-0.2,0.2-0.2,0.3
			c0,0.1-0.1,0.2-0.1,0.3l-0.2,0.4c-0.1,0.1-0.2,0.2-0.3,0.2c-0.2,0-0.3,0-0.4-0.1c-0.1,0-0.2-0.1-0.3-0.1c-0.1,0-0.2-0.1-0.3-0.2
			c-0.1-0.1-0.2-0.2-0.3-0.4c-0.1-0.2-0.1-0.3,0-0.4c0-0.1,0-0.1,0.1-0.3c0-0.1,0-0.2,0-0.2l-0.1-0.2c0.1-0.1,0.2-0.2,0.1-0.3
			c0-0.1,0-0.3,0-0.4c-0.1-0.5,0-0.9,0.2-1.3l0.1-0.1c-0.1-0.2-0.1-0.3-0.1-0.5c0-0.1,0.1-0.3,0.1-0.5l0.1-0.1c0-0.1,0-0.3,0-0.4
			c0-0.1,0-0.3,0.1-0.4c0-0.2,0-0.4,0-0.5c0-0.2,0-0.3,0-0.5l-0.1-0.1c-0.2,0-0.3,0.1-0.2,0.3c-0.1,0.2-0.2,0.3-0.2,0.5
			c-0.1,0.2-0.2,0.3-0.3,0.5l-0.2,0.4l-0.3,0.6c-0.2,0.1-0.3,0.3-0.3,0.4c0,0.2-0.1,0.4-0.2,0.5l-0.5,1l-0.1,0.2
			c0,0.2-0.1,0.3-0.3,0.4c-0.2,0.1-0.3,0.1-0.5,0.1c0,0.1-0.1,0.1-0.1,0.1c0,0,0,0-0.1,0c-0.1-0.1-0.2-0.2-0.3-0.2
			c-0.1-0.1-0.1-0.1-0.2-0.2c0-0.1-0.1-0.1-0.1-0.1c0-0.1-0.1-0.2-0.1-0.3c0-0.1,0-0.2,0.1-0.3L120.8,24.1z M122.3,23.3
			c0,0.1,0,0.1,0,0.1c0,0,0,0,0.1,0.1C122.4,23.4,122.4,23.4,122.3,23.3c0,0.1,0,0.1-0.1,0.1L122.3,23.3z M122.3,22.6L122.3,22.6
			l0.1,0.2C122.4,22.7,122.4,22.7,122.3,22.6C122.4,22.7,122.4,22.6,122.3,22.6z M122.5,22.5l-0.1-0.1l-0.1,0.1
			C122.4,22.5,122.4,22.5,122.5,22.5C122.5,22.5,122.5,22.5,122.5,22.5z M122.7,23.1l-0.1-0.1L122.7,23.1z M122.8,22.4l0.1-0.2
			l-0.1-0.1c-0.1,0-0.1,0-0.1,0.1c0,0,0,0,0,0C122.7,22.3,122.7,22.3,122.8,22.4C122.7,22.4,122.7,22.4,122.8,22.4l-0.2-0.1
			L122.8,22.4z M123.2,21.5l0.1,0.2L123.2,21.5z M123.3,21.1C123.3,21.1,123.3,21.1,123.3,21.1c0.1,0,0.1-0.1,0.1-0.1L123.3,21.1z
			 M123.8,20.4L123.8,20.4L123.8,20.4z M124.3,19.8l-0.1-0.1c0,0,0-0.1,0-0.1c0,0,0,0-0.1-0.1l-0.1,0.1l-0.1,0.1l0.1-0.1l0.2,0.1
			L124.3,19.8L124.3,19.8L124.3,19.8z M124.2,20.2l0.1-0.1L124.2,20.2z M124.3,18.5c0.1,0,0.1,0.1,0.1,0.1c0,0,0,0,0,0.1l0.1-0.1
			L124.3,18.5z M124.6,19.6l-0.1,0.1c0,0-0.1,0-0.1,0c-0.1,0-0.1,0-0.1,0.1l0.1,0.1c0,0,0,0,0,0c0,0,0.1,0,0.1,0l0.1-0.1L124.6,19.6
			z M124.6,19.2l-0.1-0.1L124.6,19.2z M124.6,18.6l0.1,0.1L124.6,18.6z M124.9,17.8l-0.2-0.1l0.1,0.2L124.9,17.8z M125.3,20
			L125.3,20c-0.1,0-0.1-0.1-0.2-0.1c0,0-0.1,0-0.1-0.1c0,0-0.1,0-0.1,0c-0.1,0-0.1,0-0.1,0.1l0.1,0.1l0.1,0.1l0.1,0.1L125.3,20z
			 M124.9,17.7c0-0.1,0-0.1,0-0.1c0,0,0,0-0.1-0.1l0.2,0.1L124.9,17.7z M124.8,24.9L125,25L124.8,24.9z M124.9,18.7l0,0.1
			L124.9,18.7z M124.9,23.8l0.1,0.1l-0.1-0.2L124.9,23.8z M124.9,25.6l-0.1,0.1l0.1,0.1l0.1-0.1L124.9,25.6z M125.1,18.1L125.1,18.1
			L125.1,18.1l-0.2-0.1L125.1,18.1z M125,18.4L125,18.4l-0.1-0.2C124.9,18.3,124.9,18.4,125,18.4C124.9,18.4,125,18.4,125,18.4z
			 M125.2,26.5l-0.1-0.1c-0.1,0-0.1,0.1-0.1,0.1c0,0,0.1,0.1,0.2,0.1c0,0-0.1,0.1-0.1,0c0,0,0,0,0,0l0-0.1L125.2,26.5z M125,22.7
			l0.1,0.1c0.1,0,0.1,0,0.2,0c0,0,0,0,0,0c0.1,0,0.1,0,0.1,0c0,0,0,0,0.1-0.1l-0.1-0.1c0,0,0,0,0,0c0,0-0.1,0-0.2,0l-0.1,0.1
			L125,22.7C125,22.7,125.1,22.7,125,22.7c0.1,0,0.1-0.1,0.1-0.1L125,22.7z M125.2,24.5C125.2,24.6,125.2,24.6,125.2,24.5
			c0.1,0,0.2,0,0.2,0c0,0,0,0.1,0,0.2c0,0,0,0.1,0,0.1c0.1,0,0.1,0,0.1,0c0,0,0-0.1,0-0.1l-0.1-0.2c0-0.1,0-0.1,0-0.1
			C125.4,24.4,125.3,24.4,125.2,24.5L125.2,24.5l-0.1-0.1L125.2,24.5z M125.1,25.3l0.1,0.1l0.1-0.1
			C125.2,25.3,125.2,25.3,125.1,25.3C125.1,25.3,125.1,25.3,125.1,25.3z M125.3,17.6C125.3,17.6,125.2,17.6,125.3,17.6
			c-0.1,0-0.1,0.1-0.1,0.1c0,0.1-0.1,0.1-0.1,0.1c0,0,0,0,0.1,0c0,0,0,0.1,0,0.1c0,0,0,0,0.1,0.1l-0.1,0.1l0.1-0.1c0,0,0,0,0,0
			c0,0,0-0.1-0.1-0.1l0.1-0.1L125.3,17.6z M125.2,24.2L125.2,24.2L125.2,24.2z M125.4,26.5l-0.1-0.1L125.4,26.5z M125.3,22.3
			l-0.1,0.1L125.3,22.3l0.1,0.1L125.3,22.3z M125.4,21c0,0,0,0.1,0,0.1c0,0,0,0,0.1,0l0.1-0.1L125.4,21z M125.4,16.9
			C125.4,16.9,125.4,16.9,125.4,16.9c0.1,0,0.1,0,0.2,0L125.4,16.9L125.4,16.9z M125.6,19c0.1,0,0.1,0,0.1,0c0,0,0,0,0,0
			c0,0-0.1,0-0.1,0C125.6,19,125.6,19,125.6,19l0.1-0.1c0,0,0-0.1,0-0.1c0,0-0.1,0-0.1,0L125.6,19l0.1,0.2l-0.3-0.1l0.3,0.1
			L125.6,19z M125.6,25.4l-0.1-0.1l-0.1,0.1C125.4,25.5,125.5,25.5,125.6,25.4C125.5,25.5,125.5,25.5,125.6,25.4z M125.4,25.8
			l0.1,0.1l0.1-0.1l-0.1,0.1L125.4,25.8z M125.5,16.5C125.6,16.5,125.6,16.5,125.5,16.5c0-0.1,0-0.1-0.1-0.2c0,0,0,0,0.1,0
			C125.5,16.5,125.6,16.5,125.5,16.5z M125.6,24.4l0.1-0.1c-0.1,0-0.1,0-0.2,0c0,0,0,0,0,0L125.6,24.4z M125.7,22.1l-0.1-0.1
			L125.7,22.1C125.6,22.1,125.6,22.1,125.7,22.1c-0.1,0.1-0.1,0.1-0.1,0.1L125.7,22.1z M125.8,18.6l-0.2-0.1c0,0.1,0,0.1,0,0.1
			c0.1,0,0.1,0,0,0.1L125.8,18.6z M125.7,17.6l-0.1-0.2l0,0.1L125.7,17.6z M125.6,21.5l-0.1,0.1L125.6,21.5
			C125.7,21.5,125.7,21.6,125.6,21.5c0.1,0.1,0.1,0.1,0.1,0.1L125.6,21.5z M125.6,21.1l0.1-0.1c-0.1,0-0.1,0-0.1,0
			C125.7,21,125.7,21.1,125.6,21.1l-0.1,0.1c0.1,0,0.1,0,0.2,0c0,0,0,0,0,0L125.6,21.1z M125.7,19.7L125.7,19.7c0,0.1,0,0.1,0,0.2
			c0,0,0.1,0,0.1,0L125.7,19.7C125.7,19.7,125.7,19.7,125.7,19.7c-0.1,0-0.1-0.1-0.1-0.1L125.7,19.7z M125.6,25.3l0.1,0.1l0.1-0.1
			l-0.1-0.1L125.6,25.3z M125.6,17.9l0.1,0.1l0.1,0.1c0,0,0-0.1,0-0.1c0,0,0,0-0.1,0l-0.1-0.1l0.1,0.1l-0.1,0.1L125.6,17.9z
			 M125.8,20.1l-0.1-0.1l0.1,0.2L125.8,20.1z M125.9,23.6l-0.1,0.1l0.1,0.1l0.1-0.1c0,0,0.1,0,0.1,0c0,0,0-0.1,0-0.1l-0.1,0.1
			L125.9,23.6l-0.1-0.1L125.9,23.6z M125.9,18.3l-0.2,0L125.9,18.3z M125.9,17.7l-0.1-0.1l0.1,0.2L125.9,17.7z M125.8,24.1l0.1,0.1
			L125.8,24.1z M126,18.6l-0.2-0.1c0,0,0,0,0.1,0C125.9,18.6,126,18.6,126,18.6L126,18.6z M125.9,19l0.1,0.1L125.9,19l0,0.1
			c0.1,0,0.1,0.1,0.1,0c0,0,0,0,0.1-0.1L125.9,19z M126,25.7L126,25.7c0-0.1-0.1-0.1-0.1-0.1c0,0,0,0-0.1,0.1L126,25.7z M126.2,16.6
			l-0.1-0.1L126.2,16.6l-0.1,0.1L126.2,16.6z M126.1,24.5C126.1,24.5,126.1,24.5,126.1,24.5c0,0.1,0,0.2,0.1,0.2l0.1-0.1L126.1,24.5
			z M126.2,23l-0.1,0.1l0.1,0.1c0,0,0,0,0-0.1C126.3,23.1,126.2,23.1,126.2,23z M126.4,24.9L126.4,24.9c0-0.1-0.1-0.1-0.1-0.1
			c0,0,0,0-0.1,0.1L126.4,24.9z M126.4,22.9C126.4,22.9,126.4,23,126.4,22.9c0,0.1,0,0.1,0.1,0.2C126.5,23,126.5,23,126.4,22.9
			C126.5,22.9,126.4,22.9,126.4,22.9C126.4,22.8,126.5,22.8,126.4,22.9c0.1,0,0.2,0,0.2,0C126.5,22.8,126.5,22.8,126.4,22.9
			C126.4,22.9,126.4,22.9,126.4,22.9z M126.5,24.3l0.1,0.1L126.5,24.3z M126.7,22.6C126.7,22.6,126.7,22.7,126.7,22.6
			c0,0.1,0.1,0.1,0.1,0.1c0,0,0,0.1,0,0.1c0,0,0,0.1,0.1,0.1l0.1,0.1l-0.1-0.1c0,0-0.1-0.1-0.1-0.1c0,0,0,0,0-0.1L126.7,22.6z
			 M127.1,22.3l0.1-0.1C127.1,22.2,127.1,22.2,127.1,22.3c0,0-0.1,0-0.1-0.1L127.1,22.3z M127,23.4l0.1-0.1L127,23.4z M127.3,22.1
			C127.3,22.1,127.4,22.1,127.3,22.1c0-0.2,0-0.2-0.1-0.2l-0.1-0.1C127.1,22,127.2,22,127.3,22.1C127.3,22.1,127.3,22.1,127.3,22.1
			l-0.1,0.1L127.3,22.1z M127.6,21.7c0,0,0.1-0.1,0.1-0.1c0,0,0.1,0,0.1,0l0.1-0.2l0.1,0.2c0.1,0,0.1,0,0.1,0c0,0,0-0.1-0.1-0.1
			l-0.1-0.2l-0.1,0.1l-0.1-0.1l-0.1,0.1c0,0,0,0,0,0.1c0,0,0,0.1,0.1,0.1L127.6,21.7z M127.8,22.2l-0.1-0.1L127.8,22.2z M128,21.2
			c0-0.1-0.1-0.1-0.2-0.1c-0.1,0-0.1,0-0.1,0.1l0.1,0.1L128,21.2z M128,21l0.1,0.1L128,21L128,21c0.1-0.1,0.2-0.1,0.2-0.1
			c0,0,0,0,0.1-0.1c-0.1,0-0.1,0-0.2,0C128,20.8,128,20.9,128,21L128,21z M128.1,20.5l0.1,0.1L128.1,20.5z M128.2,20.3l-0.1,0.1
			L128.2,20.3z M128.4,20.5l-0.1,0.1l0.1,0.1L128.4,20.5z M128.6,19.8L128.6,19.8L128.6,19.8l-0.1,0.1l0.1,0.1l0.1,0.1l-0.1-0.1
			l-0.1-0.1L128.6,19.8z M128.8,19.8c0,0,0,0.1,0,0.1c0,0,0,0,0.1,0l0-0.1l0,0.1L128.8,19.8L128.8,19.8z M128.9,19.6l-0.1,0.1
			l0.1,0.1C129,19.7,129,19.7,128.9,19.6C128.9,19.6,128.9,19.6,128.9,19.6l0.1,0.1L128.9,19.6z M128.9,19.2l0.1-0.1L128.9,19.2z
			 M129,18.8l0.1,0.1l0-0.1l0,0.1L129,18.8z M129.2,18.4l0.1,0.1c0-0.1,0.1-0.1,0.1-0.1c0,0,0,0-0.1,0l-0.1,0.1L129.2,18.4z
			 M129.4,19.2c-0.1,0-0.1-0.1-0.1,0c0,0,0,0-0.1,0.1l0-0.1L129.4,19.2z M129.6,18.9l-0.1-0.1l0.2,0L129.6,18.9z"/>
		<path class="st2" d="M134.8,20.7l1.4,0.9c0.3,0.2,0.4,0.4,0.5,0.5c0.1,0.2,0,0.3,0,0.5c-0.1,0.2-0.3,0.3-0.5,0.4
			c-0.2,0-0.4,0-0.5-0.1c-0.3-0.1-0.6-0.3-0.8-0.4c-0.2-0.1-0.4-0.3-0.5-0.5c-0.1-0.1-0.3-0.1-0.4-0.1c-0.1,0-0.2,0-0.3,0
			c-0.2,0-0.3-0.1-0.4,0c-0.1,0-0.2,0.1-0.2,0.2l-1,1.5c-0.1,0.2-0.1,0.3,0,0.6c0.1,0.2,0.2,0.4,0.4,0.5c0.1,0.1,0.3,0.2,0.4,0.3
			c0.1,0.1,0.3,0.1,0.4,0.1c0.1,0.1,0.2,0.2,0.3,0.4c0.1,0.1,0.1,0.2,0.2,0.3c0,0,0.1,0.1,0.1,0.1c0,0,0,0,0,0.1
			c0,0.1,0,0.3-0.1,0.5c-0.1,0.2-0.2,0.2-0.4,0.2c-0.1,0.1-0.2,0.1-0.4,0.1c-0.1,0-0.2,0-0.2-0.1l-1.2-0.8c-0.1-0.1-0.3-0.2-0.5-0.2
			c-0.2-0.1-0.3,0-0.4,0.1c-0.2,0.1-0.3,0.2-0.4,0.3c-0.1,0.1-0.2,0.2-0.3,0.4l-0.4,0.6c-0.1,0.1-0.1,0.2-0.2,0.3
			c-0.1,0.1-0.1,0.2-0.1,0.4c0,0.2,0,0.4,0.2,0.6c0.2,0.2,0.4,0.3,0.6,0.4c0.2,0.1,0.4,0.3,0.6,0.4c0.2,0.1,0.4,0.3,0.5,0.5
			c0.3,0.2,0.3,0.4,0.2,0.5c0,0.1,0,0.2,0,0.3c0,0.1-0.1,0.2-0.1,0.2c-0.1,0.1-0.2,0.1-0.3,0.2c-0.2,0-0.3,0-0.4-0.1
			c-0.5-0.3-1.1-0.6-1.6-0.9c-0.5-0.3-1-0.6-1.4-0.9c-0.5-0.3-0.6-0.7-0.3-1.1l0.8-1.2l0.2-0.3c0.1,0,0.2-0.1,0.2-0.3
			c0-0.1,0.1-0.3,0.2-0.4l0.6-0.9c0.1-0.1,0.2-0.2,0.3-0.3c0-0.1,0.1-0.2,0.3-0.3c0-0.2,0.1-0.3,0.1-0.4c0.1-0.1,0.2-0.3,0.3-0.4
			l0.2-0.3l0.1-0.1c0.2-0.2,0.4-0.4,0.5-0.7c0.1-0.2,0.2-0.5,0.4-0.6l0.9-1.3c0.1,0,0.2-0.1,0.2-0.1c0.1-0.1,0.1-0.2,0.2-0.2
			c0.1-0.1,0.2-0.2,0.4-0.2c0.1,0,0.3,0.1,0.4,0.1L134.8,20.7z M128.1,27.9C128.1,28,128.1,28,128.1,27.9c0,0.1,0,0.1,0.2,0.1
			L128.1,27.9l0.2,0.1l0.1-0.1L128.1,27.9L128.1,27.9z M128.6,28.6C128.6,28.6,128.6,28.6,128.6,28.6c0-0.1,0-0.1-0.1-0.2
			L128.6,28.6C128.6,28.6,128.6,28.6,128.6,28.6C128.5,28.6,128.5,28.6,128.6,28.6L128.6,28.6z M128.6,28L128.6,28l-0.1-0.2
			C128.5,27.9,128.5,27.9,128.6,28C128.6,28,128.6,28,128.6,28z M128.7,26.6L128.7,26.6L128.7,26.6L128.7,26.6L128.7,26.6z
			 M128.8,28.3L128.8,28.3l0.1-0.2L128.8,28.3L128.8,28.3L128.8,28.3L128.8,28.3z M129.1,28.7l0.2,0l-0.1-0.1c0,0,0-0.1,0-0.1
			c0,0-0.1,0-0.1,0c0,0.1-0.1,0.1-0.1,0.1C129,28.7,129,28.7,129.1,28.7z M129,29.4l0.2,0l0.2,0l-0.1,0.1l0.1-0.1
			c0-0.1,0.1-0.1,0.1-0.1c0,0,0,0-0.1-0.1l-0.1,0.1c0,0,0,0,0,0c0,0-0.1,0-0.1-0.1l-0.1-0.1L129,29l-0.1,0.1c0.1,0,0.1,0.1,0.1,0.1
			c0,0,0,0.1,0.1,0.1L129,29.4z M129.1,26.7C129.2,26.7,129.2,26.7,129.1,26.7c0.1,0,0.1,0,0.1-0.1c0,0,0-0.1,0-0.1l-0.2,0l-0.1,0.1
			C129.1,26.7,129.1,26.7,129.1,26.7z M129.3,26.2l0.2,0.1l0.1-0.1C129.4,26.2,129.3,26.2,129.3,26.2
			C129.3,26.2,129.3,26.2,129.3,26.2z M129.7,25.6c-0.1,0-0.1-0.1-0.1-0.1c0,0,0-0.1-0.1-0.2l-0.2,0l0.1,0.1c0,0,0,0,0.1,0.1
			C129.5,25.6,129.6,25.7,129.7,25.6L129.7,25.6z M129.4,29.1l0.1,0.1L129.4,29.1z M129.8,25.2l-0.1-0.1l-0.1,0.1
			C129.7,25.2,129.7,25.2,129.8,25.2C129.7,25.2,129.8,25.2,129.8,25.2z M130.3,24.2L130.3,24.2l0.1,0.2c0,0,0,0,0-0.1
			C130.4,24.2,130.3,24.2,130.3,24.2z M130.5,29.6l0.1,0.1c0,0,0-0.1,0-0.1C130.7,29.5,130.7,29.5,130.5,29.6L130.5,29.6l-0.1-0.1
			L130.5,29.6z M130.6,24.5l-0.2-0.1c0,0,0,0.1,0,0.1C130.4,24.5,130.5,24.6,130.6,24.5L130.6,24.5z M130.6,23.7l-0.2,0L130.6,23.7z
			 M130.5,29.9l0.1,0.1L130.5,29.9L130.5,29.9L130.5,29.9z M130.6,25l-0.1,0.1l0.1,0.1l-0.1-0.1L130.6,25z M130.9,24.9L130.9,24.9
			L130.9,24.9z M131.5,24.6C131.4,24.6,131.4,24.6,131.5,24.6c0,0.1,0,0.1,0.1,0.2l-0.1,0.2l-0.1-0.1c0-0.1,0-0.1,0-0.1
			c0,0-0.1,0-0.1,0l0.1,0.1l0.1,0.1c0,0,0.1,0,0.1,0c0.1,0,0.1-0.1,0-0.2C131.5,24.7,131.4,24.7,131.5,24.6
			C131.4,24.6,131.4,24.6,131.5,24.6z M131.5,23.5C131.4,23.5,131.4,23.5,131.5,23.5c-0.1,0-0.1,0-0.2,0
			C131.3,23.5,131.4,23.5,131.5,23.5C131.4,23.5,131.4,23.5,131.5,23.5C131.4,23.5,131.4,23.4,131.5,23.5c-0.1-0.1-0.1-0.1,0-0.2
			l-0.2-0.1c0,0.1-0.1,0.1-0.1,0.1c0,0,0,0.1,0.1,0.1L131.5,23.5z M131.2,22.7l0.1,0.1L131.2,22.7z M131.6,22.5l0.1,0.1
			c0,0,0,0,0-0.1c0-0.1,0-0.1-0.1-0.1l0.1-0.1l-0.1,0.1c0,0,0.1,0.1,0.1,0.1c0,0,0,0,0,0.1L131.6,22.5l-0.1-0.1L131.6,22.5z
			 M131.6,23.1L131.6,23.1c-0.1,0.1-0.1,0.1-0.1,0.2c0,0,0,0.1,0.1,0.1l0.1-0.1C131.6,23.2,131.6,23.2,131.6,23.1
			C131.6,23.2,131.6,23.2,131.6,23.1z M131.7,22l0.1,0.1L131.7,22l-0.1,0.1l0.1,0.1l0.1-0.1L131.7,22L131.7,22L131.7,22z
			 M131.9,24.8l-0.1-0.1L131.9,24.8L131.9,24.8z M132.2,21.8c0,0,0.1,0,0.1,0c0,0,0.1-0.1,0-0.2c0,0.1-0.1,0.1-0.1,0.1
			c0,0-0.1,0-0.1-0.1l-0.1-0.1c-0.1,0-0.1,0-0.1,0c0,0,0,0,0,0.1l-0.1,0.1l0.1-0.1l0,0.2l0.1,0.1L132.2,21.8z M131.9,21.5l0.1-0.1
			L131.9,21.5z M132.3,20.9c0,0.1,0,0.1,0.1,0.1c0,0,0.1,0,0.2,0c0,0,0,0-0.1,0c-0.1,0-0.1,0-0.1,0.1l0.1,0.1l0.1-0.1L132.3,20.9z
			 M132.6,25.6L132.6,25.6L132.6,25.6z M132.8,20.6c-0.1,0-0.1-0.1-0.1-0.1c0,0,0,0-0.1,0.1l0.1-0.1L132.8,20.6z M132.8,21l-0.1,0.1
			L132.8,21z M133,21.2l-0.1-0.1L133,21.2z M133,20.6l-0.1,0.1L133,20.6z M133.2,20.4l-0.2,0C133,20.4,133.1,20.4,133.2,20.4
			C133.1,20.4,133.2,20.4,133.2,20.4z M133,20.9l0,0.2l0.1-0.1L133,20.9z M133.5,20.4L133.5,20.4L133.5,20.4
			C133.5,20.5,133.4,20.5,133.5,20.4c0,0.1,0,0.1,0.1,0.2C133.5,20.6,133.5,20.6,133.5,20.4C133.6,20.5,133.6,20.5,133.5,20.4z
			 M134.1,21c-0.1,0-0.1,0-0.1,0.1c0,0,0,0,0,0l-0.1,0.1l0.1-0.1L134.1,21z M134.3,21.1l0.1,0.1C134.4,21.2,134.3,21.2,134.3,21.1
			c0,0,0-0.1-0.1-0.2c0,0-0.1,0.1-0.1,0.1C134.2,21.1,134.2,21.2,134.3,21.1z M134.6,21.8L134.6,21.8l-0.1-0.1L134.6,21.8z
			 M135,21.5C135,21.5,135,21.4,135,21.5c0-0.1,0-0.1-0.1-0.2l-0.1,0.1L135,21.5z M135.4,21.6L135.4,21.6l0.1,0.2l0.1-0.1
			L135.4,21.6z M135.6,22C135.6,22,135.6,22.1,135.6,22c0.1,0.1,0.1,0.1,0.1,0.1L135.6,22z"/>
	</g>
	<path class="st2" d="M88.8,170.8c-44.7,0-81.1-36.4-81.1-81.1c0-23.6,10.3-46,28.1-61.4c0.6-0.5,1.4-0.4,1.9,0.1
		c0.5,0.6,0.4,1.4-0.1,1.9C20.3,45.3,10.4,66.9,10.4,89.7c0,43.2,35.2,78.4,78.4,78.4c43.2,0,78.4-35.2,78.4-78.4
		c0-22.8-9.9-44.4-27.2-59.3c-0.6-0.5-0.6-1.4-0.1-1.9c0.5-0.6,1.4-0.6,1.9-0.1c17.9,15.4,28.1,37.8,28.1,61.4
		C169.9,134.5,133.5,170.8,88.8,170.8z"/>
	<path class="st0" d="M138.2,97.6c-1.3-2.1-2.8-2-11.2-0.6c-4.6,0.7-9.2-0.5-12.6-2.9c-7-4.9-9.4-15.5-10-18.7
		c-0.3-3.5-0.6-7-1.1-10.4c-0.7-5.6-1.9-12-6.8-15.6c-5.2-3.7-6.2-6.5-5.8-11c0.3-3.1,0.1-5-0.2-6.6c-0.5-1-1.5-1.9-3.1-1.9
		c-2.3,0-2.7,0.7-3.3,2c-0.4,1.4-0.2,5.6-0.1,6.6c0.4,4.1,0.1,7.3-3.7,10.6c-5.2,4.4-8,10.5-7.9,17.6c0.2,6.7-0.4,13.3-1.6,19.9
		c-1.2,4.1-3.3,8.8-6.8,11.8c-3.1,2.7-7.3,4.1-11.9,3.8c-8.5-0.5-10.1-0.5-11.5,1.6c-1.4,2.1-0.7,4.2,2,7.1
		c2.2,2.4,5.9,4.2,10.8,4.9c-1,0.5-3.3,1.7-3.8,1.9c-2.7,1.2-5.6,2.1-8.2,3.6c-3.8,2.3-3.7,6.3-0.1,8.8c5.1,2.1,11.3,1.2,15.1,0.8
		c12.8-2.1,24.2-6.6,31.3-18.7c1.3,1.7,2.2,3.1,3.3,4.3c8.4,9.6,18.8,14.4,31.7,12.7c2.6-0.4,5.4-1,6.3-3.8c0.9-2.7-1.3-4-3-5.4
		c-2.6-2.2-5.7-5.1-8.8-8.7c1.4,0.1,2.8,0,3.9,0c7.7-0.6,13.1-3.3,15.8-6.8C139.3,101.2,139.6,99.8,138.2,97.6z"/>
	<g>
		<circle class="st3" cx="76.1" cy="105.5" r="2.1"/>
		<circle class="st3" cx="77.3" cy="115.2" r="1"/>
		<circle class="st3" cx="82.8" cy="105.3" r="1.1"/>
		<circle class="st3" cx="115.2" cy="101.9" r="0.9"/>
		<circle class="st3" cx="130" cy="102.7" r="0.9"/>
		<circle class="st3" cx="126.1" cy="104.1" r="0.9"/>
		<circle class="st3" cx="73.6" cy="100.3" r="1.1"/>
		<path class="st2" d="M79.8,98.9c-0.1,0-0.2,0-0.3,0c-0.5-0.2-0.8-0.7-0.6-1.2c6-18.4,3-37.2,2.5-39.1c-0.1-0.2-0.1-0.5-0.1-0.8
			c0.2-0.5,0.7-0.8,1.2-0.6c0.5,0.2,0.8,0.3,1.3,4.3c0.3,1.9,0.6,5.1,0.7,9.1c0.2,6.8-0.4,17.2-3.8,27.7
			C80.6,98.7,80.2,98.9,79.8,98.9z"/>
		<path class="st2" d="M138.2,97.6c-1.3-2.1-2.8-2-11.2-0.6c-4.6,0.7-9.2-0.5-12.6-2.9c-7-4.9-9.4-15.5-10-18.7
			c-0.3-3.5-0.6-7-1.1-10.4c-0.7-5.6-1.9-12-6.8-15.6c-5.2-3.7-6.2-6.5-5.8-11c0.3-3.1,0.1-5-0.2-6.6c-0.5-1-1.5-1.9-3.1-1.9
			c-2.3,0-2.7,0.7-3.3,2c-0.4,1.4-0.2,5.6-0.1,6.6c0.4,4.1,0.1,7.3-3.7,10.6c-5.2,4.4-8,10.5-7.9,17.6c0.2,6.7-0.4,13.3-1.6,19.9
			c-1.2,4.1-3.3,8.8-6.8,11.8c-3.1,2.7-7.3,4.1-11.9,3.8c-8.5-0.5-10.1-0.5-11.5,1.6c-1.4,2.1-0.7,4.2,2,7.1
			c2.2,2.4,5.9,4.2,10.8,4.9c-1,0.5-3.3,1.7-3.8,1.9c-2.7,1.2-5.6,2.1-8.2,3.6c-3.8,2.3-3.7,6.3-0.1,8.8c5.1,2.1,11.3,1.2,15.1,0.8
			c12.8-2.1,24.2-6.6,31.3-18.7c1.3,1.7,2.2,3.1,3.3,4.3c8.4,9.6,18.8,14.4,31.7,12.7c2.6-0.4,5.4-1,6.3-3.8c0.9-2.7-1.3-4-3-5.4
			c-2.6-2.2-5.7-5.1-8.8-8.7c1.4,0.1,2.8,0,3.9,0c7.7-0.6,13.1-3.3,15.8-6.8C139.3,101.2,139.6,99.8,138.2,97.6z M46.2,109.8
			c-1.9-1.3-3.8-2.9-3.2-4c0.8-1.5,3.7-0.4,9.7-0.3c6.8,0.2,13.8-3.6,16.1-8.5c-3.2,6.7-8.5,13.6-11.2,15.9
			C53.1,112.7,48.5,111.4,46.2,109.8z M47.4,127.9c-0.4,0-0.7,0-1.1-0.1c22.1-6.7,25.8-15.9,25.9-16.4c0.2-0.5-0.1-1.1-0.6-1.3
			c-0.5-0.2-1.1,0.1-1.3,0.6c0,0.1-3.7,9.6-27.6,16c-0.5-0.3-0.8-0.7-0.8-1.3c-0.1-1.3,0.9-2,1.7-2.2c5.8-1.7,10.6-4.1,14.6-7.2
			c3.1-2.6,11.3-8,15.7-27.3c0.5-2.6,0.9-5.3,1.2-8.2c0.3-7.5,0.2-10.2,0.2-13.7c0-8.2,6.3-15,7.1-15.6c1.3-1.1,4.1-3.4,4.5-2
			c5.6,20.4,4.7,35.5,3.5,44.1C87.5,117.3,72,128.4,47.4,127.9z M124.4,122.5c0.6,0.4,2.3,1.5,1.5,2.1
			c-22.1-3.7-26.7-26.6-26.8-26.9c-0.1-0.5-0.6-0.9-1.1-0.8c-0.5,0.1-0.9,0.6-0.8,1.1c0,0.2,4.5,22,24.9,27.7
			c-0.2,0-0.4,0.1-0.6,0.1c-5.1,0.9-11.2,0.2-17.8-3.1c-5.5-2.7-9.3-7.1-12.8-12.1c-0.4-0.6-1.1-1.7-1.1-1.7s0.9-3.4,1.3-5.1
			c4.5-19.2,2.5-30.1,2.2-33.8c-0.5-5.2-2.9-17.8-3.6-20.8c-0.7-3,3.8,1,5,2.1c3.1,2.8,4.6,6.1,5,10.1c0.4,2.7,4.1,31.3,5.9,36.2
			c2.2,5.9,5.8,11.5,10.1,16.4C118.4,117.2,120.9,120.3,124.4,122.5z M133.4,104c-5.2,3.9-14.1,5.3-18.1,3.7
			c-6.3-6.7-8.1-18.5-8.1-18.5s3.2,12.3,19.2,10.9c5.9-0.5,8.7-2.1,9.6-0.7C136.8,100.5,135.3,102.6,133.4,104z"/>
	</g>
</g>
</svg>
